<?xml version="1.0" encoding="UTF-8" standalone="no"?>
<!DOCTYPE svg PUBLIC "-//W3C//DTD SVG 1.1//EN"
 "http://www.w3.org/Graphics/SVG/1.1/DTD/svg11.dtd">
<!-- Generated by graphviz version 2.38.0 (20140413.2041)
 -->
<!-- Title: G Pages: 1 -->
<svg width="556pt" height="1302pt"
 viewBox="0.00 0.00 556.49 1302.00" xmlns="http://www.w3.org/2000/svg" xmlns:xlink="http://www.w3.org/1999/xlink">
<g id="graph0" class="graph" transform="scale(1 1) rotate(0) translate(4 1298)">
<title>G</title>
<polygon fill="white" stroke="none" points="-4,4 -4,-1298 552.491,-1298 552.491,4 -4,4"/>
<g id="clust1" class="cluster"><title>cluster_Global</title>
<path fill="none" stroke="gray" d="M157.491,-98C157.491,-98 528.491,-98 528.491,-98 534.491,-98 540.491,-104 540.491,-110 540.491,-110 540.491,-1274 540.491,-1274 540.491,-1280 534.491,-1286 528.491,-1286 528.491,-1286 157.491,-1286 157.491,-1286 151.491,-1286 145.491,-1280 145.491,-1274 145.491,-1274 145.491,-110 145.491,-110 145.491,-104 151.491,-98 157.491,-98"/>
<text text-anchor="middle" x="342.991" y="-1273.2" font-family="Times,serif" font-size="11.00" fill="gray">Global</text>
</g>
<g id="clust2" class="cluster"><title>cluster_\Wellid</title>
<path fill="none" stroke="gray" d="M165.491,-106C165.491,-106 520.491,-106 520.491,-106 526.491,-106 532.491,-112 532.491,-118 532.491,-118 532.491,-1246 532.491,-1246 532.491,-1252 526.491,-1258 520.491,-1258 520.491,-1258 165.491,-1258 165.491,-1258 159.491,-1258 153.491,-1252 153.491,-1246 153.491,-1246 153.491,-118 153.491,-118 153.491,-112 159.491,-106 165.491,-106"/>
<text text-anchor="middle" x="342.991" y="-1245.2" font-family="Times,serif" font-size="11.00" fill="gray">Wellid</text>
</g>
<g id="clust3" class="cluster"><title>cluster_\Wellid\Validator</title>
<path fill="none" stroke="gray" d="M173.491,-456C173.491,-456 503.491,-456 503.491,-456 509.491,-456 515.491,-462 515.491,-468 515.491,-468 515.491,-1218 515.491,-1218 515.491,-1224 509.491,-1230 503.491,-1230 503.491,-1230 173.491,-1230 173.491,-1230 167.491,-1230 161.491,-1224 161.491,-1218 161.491,-1218 161.491,-468 161.491,-468 161.491,-462 167.491,-456 173.491,-456"/>
<text text-anchor="middle" x="338.491" y="-1217.2" font-family="Times,serif" font-size="11.00" fill="gray">Validator</text>
</g>
<g id="clust4" class="cluster"><title>cluster_\Wellid\Exception</title>
<path fill="none" stroke="gray" d="M203.991,-268C203.991,-268 489.991,-268 489.991,-268 495.991,-268 501.991,-274 501.991,-280 501.991,-280 501.991,-436 501.991,-436 501.991,-442 495.991,-448 489.991,-448 489.991,-448 203.991,-448 203.991,-448 197.991,-448 191.991,-442 191.991,-436 191.991,-436 191.991,-280 191.991,-280 191.991,-274 197.991,-268 203.991,-268"/>
<text text-anchor="middle" x="346.991" y="-435.2" font-family="Times,serif" font-size="11.00" fill="gray">Exception</text>
</g>
<!-- \\Wellid\\Validator\\MIME -->
<g id="node1" class="node"><title>\\Wellid\\Validator\\MIME</title>
<polygon fill="none" stroke="black" points="478.991,-1202 424.991,-1202 424.991,-1166 478.991,-1166 478.991,-1202"/>
<text text-anchor="middle" x="451.991" y="-1181.2" font-family="Courier,monospace" font-size="11.00">MIME</text>
</g>
<!-- \\Wellid\\Validator\\ValidatorInterface -->
<g id="node14" class="node"><title>\\Wellid\\Validator\\ValidatorInterface</title>
<polygon fill="none" stroke="black" points="307.491,-878 169.491,-878 169.491,-842 307.491,-842 307.491,-878"/>
<text text-anchor="middle" x="238.491" y="-857.2" font-family="Courier,monospace" font-size="11.00">ValidatorInterface</text>
</g>
<!-- \\Wellid\\Validator\\MIME&#45;&gt;\\Wellid\\Validator\\ValidatorInterface -->
<g id="edge1" class="edge"><title>\\Wellid\\Validator\\MIME&#45;&gt;\\Wellid\\Validator\\ValidatorInterface</title>
<path fill="none" stroke="black" stroke-dasharray="1,5" d="M424.944,-1179.23C410.123,-1175.38 392.066,-1168.61 379.491,-1157 297.098,-1080.9 258.657,-946.34 245.277,-888.132"/>
<polygon fill="none" stroke="black" points="248.652,-887.185 243.065,-878.183 241.819,-888.704 248.652,-887.185"/>
</g>
<!-- \\Wellid\\Validator\\Password -->
<g id="node2" class="node"><title>\\Wellid\\Validator\\Password</title>
<polygon fill="none" stroke="black" points="487.491,-1148 416.491,-1148 416.491,-1112 487.491,-1112 487.491,-1148"/>
<text text-anchor="middle" x="451.991" y="-1127.2" font-family="Courier,monospace" font-size="11.00">Password</text>
</g>
<!-- \\Wellid\\Validator\\Password&#45;&gt;\\Wellid\\Validator\\ValidatorInterface -->
<g id="edge3" class="edge"><title>\\Wellid\\Validator\\Password&#45;&gt;\\Wellid\\Validator\\ValidatorInterface</title>
<path fill="none" stroke="black" stroke-dasharray="1,5" d="M416.424,-1122.2C403.776,-1118.07 390.005,-1111.94 379.491,-1103 308.844,-1042.94 265.828,-937.749 248.431,-887.821"/>
<polygon fill="none" stroke="black" points="251.639,-886.384 245.107,-878.042 245.012,-888.636 251.639,-886.384"/>
</g>
<!-- \\Wellid\\Validator\\MinLength -->
<g id="node3" class="node"><title>\\Wellid\\Validator\\MinLength</title>
<polygon fill="none" stroke="black" points="490.491,-1094 413.491,-1094 413.491,-1058 490.491,-1058 490.491,-1094"/>
<text text-anchor="middle" x="451.991" y="-1073.2" font-family="Courier,monospace" font-size="11.00">MinLength</text>
</g>
<!-- \\Wellid\\Validator\\MinLength&#45;&gt;\\Wellid\\Validator\\ValidatorInterface -->
<g id="edge4" class="edge"><title>\\Wellid\\Validator\\MinLength&#45;&gt;\\Wellid\\Validator\\ValidatorInterface</title>
<path fill="none" stroke="black" stroke-dasharray="1,5" d="M413.287,-1066.28C401.725,-1062.16 389.442,-1056.52 379.491,-1049 320.228,-1004.21 274.495,-927.639 252.99,-887.071"/>
<polygon fill="none" stroke="black" points="256.012,-885.297 248.29,-878.043 249.803,-888.53 256.012,-885.297"/>
</g>
<!-- \\Wellid\\Validator\\Email -->
<g id="node4" class="node"><title>\\Wellid\\Validator\\Email</title>
<polygon fill="none" stroke="black" points="478.991,-1040 424.991,-1040 424.991,-1004 478.991,-1004 478.991,-1040"/>
<text text-anchor="middle" x="451.991" y="-1019.2" font-family="Courier,monospace" font-size="11.00">Email</text>
</g>
<!-- \\Wellid\\Validator\\Email&#45;&gt;\\Wellid\\Validator\\ValidatorInterface -->
<g id="edge6" class="edge"><title>\\Wellid\\Validator\\Email&#45;&gt;\\Wellid\\Validator\\ValidatorInterface</title>
<path fill="none" stroke="black" stroke-dasharray="1,5" d="M424.656,-1014.88C410.605,-1010.41 393.395,-1003.8 379.491,-995 331.502,-964.636 286.142,-915.899 260.669,-886.037"/>
<polygon fill="none" stroke="black" points="263.144,-883.543 254.026,-878.146 257.789,-888.051 263.144,-883.543"/>
</g>
<!-- \\Wellid\\Validator\\Min -->
<g id="node5" class="node"><title>\\Wellid\\Validator\\Min</title>
<polygon fill="none" stroke="black" points="478.991,-986 424.991,-986 424.991,-950 478.991,-950 478.991,-986"/>
<text text-anchor="middle" x="451.991" y="-965.2" font-family="Courier,monospace" font-size="11.00">Min</text>
</g>
<!-- \\Wellid\\Validator\\Min&#45;&gt;\\Wellid\\Validator\\ValidatorInterface -->
<g id="edge7" class="edge"><title>\\Wellid\\Validator\\Min&#45;&gt;\\Wellid\\Validator\\ValidatorInterface</title>
<path fill="none" stroke="black" stroke-dasharray="1,5" d="M424.752,-959.253C411.042,-954.393 394.118,-947.936 379.491,-941 343.318,-923.847 304.014,-900.677 276.286,-883.512"/>
<polygon fill="none" stroke="black" points="278.046,-880.485 267.708,-878.165 274.343,-886.425 278.046,-880.485"/>
</g>
<!-- \\Wellid\\Validator\\Max -->
<g id="node6" class="node"><title>\\Wellid\\Validator\\Max</title>
<polygon fill="none" stroke="black" points="478.991,-932 424.991,-932 424.991,-896 478.991,-896 478.991,-932"/>
<text text-anchor="middle" x="451.991" y="-911.2" font-family="Courier,monospace" font-size="11.00">Max</text>
</g>
<!-- \\Wellid\\Validator\\Max&#45;&gt;\\Wellid\\Validator\\ValidatorInterface -->
<g id="edge8" class="edge"><title>\\Wellid\\Validator\\Max&#45;&gt;\\Wellid\\Validator\\ValidatorInterface</title>
<path fill="none" stroke="black" stroke-dasharray="1,5" d="M424.632,-907.27C397.898,-900.444 355.211,-889.545 317.56,-879.932"/>
<polygon fill="none" stroke="black" points="318.157,-876.473 307.602,-877.39 316.425,-883.255 318.157,-876.473"/>
</g>
<!-- \\Wellid\\Validator\\Float -->
<g id="node7" class="node"><title>\\Wellid\\Validator\\Float</title>
<polygon fill="none" stroke="black" points="478.991,-878 424.991,-878 424.991,-842 478.991,-842 478.991,-878"/>
<text text-anchor="middle" x="451.991" y="-857.2" font-family="Courier,monospace" font-size="11.00">Float</text>
</g>
<!-- \\Wellid\\Validator\\Float&#45;&gt;\\Wellid\\Validator\\ValidatorInterface -->
<g id="edge9" class="edge"><title>\\Wellid\\Validator\\Float&#45;&gt;\\Wellid\\Validator\\ValidatorInterface</title>
<path fill="none" stroke="black" stroke-dasharray="1,5" d="M424.632,-860C398.012,-860 355.574,-860 318.041,-860"/>
<polygon fill="none" stroke="black" points="317.602,-856.5 307.602,-860 317.602,-863.5 317.602,-856.5"/>
</g>
<!-- \\Wellid\\Validator\\Required -->
<g id="node8" class="node"><title>\\Wellid\\Validator\\Required</title>
<polygon fill="none" stroke="black" points="487.491,-824 416.491,-824 416.491,-788 487.491,-788 487.491,-824"/>
<text text-anchor="middle" x="451.991" y="-803.2" font-family="Courier,monospace" font-size="11.00">Required</text>
</g>
<!-- \\Wellid\\Validator\\Required&#45;&gt;\\Wellid\\Validator\\ValidatorInterface -->
<g id="edge10" class="edge"><title>\\Wellid\\Validator\\Required&#45;&gt;\\Wellid\\Validator\\ValidatorInterface</title>
<path fill="none" stroke="black" stroke-dasharray="1,5" d="M416.066,-814.917C389.37,-821.733 351.528,-831.395 317.719,-840.027"/>
<polygon fill="none" stroke="black" points="316.663,-836.684 307.84,-842.549 318.395,-843.467 316.663,-836.684"/>
</g>
<!-- \\Wellid\\Validator\\Integer -->
<g id="node9" class="node"><title>\\Wellid\\Validator\\Integer</title>
<polygon fill="none" stroke="black" points="483.991,-770 419.991,-770 419.991,-734 483.991,-734 483.991,-770"/>
<text text-anchor="middle" x="451.991" y="-749.2" font-family="Courier,monospace" font-size="11.00">Integer</text>
</g>
<!-- \\Wellid\\Validator\\Integer&#45;&gt;\\Wellid\\Validator\\ValidatorInterface -->
<g id="edge13" class="edge"><title>\\Wellid\\Validator\\Integer&#45;&gt;\\Wellid\\Validator\\ValidatorInterface</title>
<path fill="none" stroke="black" stroke-dasharray="1,5" d="M419.914,-762.482C407.188,-767.095 392.44,-772.86 379.491,-779 343.318,-796.153 304.014,-819.323 276.286,-836.488"/>
<polygon fill="none" stroke="black" points="274.343,-833.575 267.708,-841.835 278.046,-839.515 274.343,-833.575"/>
</g>
<!-- \\Wellid\\Validator\\Date -->
<g id="node10" class="node"><title>\\Wellid\\Validator\\Date</title>
<polygon fill="none" stroke="black" points="478.991,-716 424.991,-716 424.991,-680 478.991,-680 478.991,-716"/>
<text text-anchor="middle" x="451.991" y="-695.2" font-family="Courier,monospace" font-size="11.00">Date</text>
</g>
<!-- \\Wellid\\Validator\\Date&#45;&gt;\\Wellid\\Validator\\ValidatorInterface -->
<g id="edge14" class="edge"><title>\\Wellid\\Validator\\Date&#45;&gt;\\Wellid\\Validator\\ValidatorInterface</title>
<path fill="none" stroke="black" stroke-dasharray="1,5" d="M424.656,-705.116C410.605,-709.593 393.395,-716.203 379.491,-725 331.502,-755.364 286.142,-804.101 260.669,-833.963"/>
<polygon fill="none" stroke="black" points="257.789,-831.949 254.026,-841.854 263.144,-836.457 257.789,-831.949"/>
</g>
<!-- \\Wellid\\Validator\\Filesize -->
<g id="node11" class="node"><title>\\Wellid\\Validator\\Filesize</title>
<polygon fill="none" stroke="black" points="487.491,-662 416.491,-662 416.491,-626 487.491,-626 487.491,-662"/>
<text text-anchor="middle" x="451.991" y="-641.2" font-family="Courier,monospace" font-size="11.00">Filesize</text>
</g>
<!-- \\Wellid\\Validator\\Filesize&#45;&gt;\\Wellid\\Validator\\ValidatorInterface -->
<g id="edge16" class="edge"><title>\\Wellid\\Validator\\Filesize&#45;&gt;\\Wellid\\Validator\\ValidatorInterface</title>
<path fill="none" stroke="black" stroke-dasharray="1,5" d="M416.221,-652.698C403.833,-656.896 390.289,-662.84 379.491,-671 320.228,-715.787 274.495,-792.361 252.99,-832.929"/>
<polygon fill="none" stroke="black" points="249.803,-831.47 248.29,-841.957 256.012,-834.703 249.803,-831.47"/>
</g>
<!-- \\Wellid\\Validator\\MaxLength -->
<g id="node12" class="node"><title>\\Wellid\\Validator\\MaxLength</title>
<polygon fill="none" stroke="black" points="490.491,-608 413.491,-608 413.491,-572 490.491,-572 490.491,-608"/>
<text text-anchor="middle" x="451.991" y="-587.2" font-family="Courier,monospace" font-size="11.00">MaxLength</text>
</g>
<!-- \\Wellid\\Validator\\MaxLength&#45;&gt;\\Wellid\\Validator\\ValidatorInterface -->
<g id="edge18" class="edge"><title>\\Wellid\\Validator\\MaxLength&#45;&gt;\\Wellid\\Validator\\ValidatorInterface</title>
<path fill="none" stroke="black" stroke-dasharray="1,5" d="M413.487,-598.788C401.677,-602.89 389.196,-608.749 379.491,-617 308.844,-677.062 265.828,-782.251 248.431,-832.179"/>
<polygon fill="none" stroke="black" points="245.012,-831.364 245.107,-841.958 251.639,-833.616 245.012,-831.364"/>
</g>
<!-- \\Wellid\\Validator\\URL -->
<g id="node13" class="node"><title>\\Wellid\\Validator\\URL</title>
<polygon fill="none" stroke="black" points="478.991,-554 424.991,-554 424.991,-518 478.991,-518 478.991,-554"/>
<text text-anchor="middle" x="451.991" y="-533.2" font-family="Courier,monospace" font-size="11.00">URL</text>
</g>
<!-- \\Wellid\\Validator\\URL&#45;&gt;\\Wellid\\Validator\\ValidatorInterface -->
<g id="edge19" class="edge"><title>\\Wellid\\Validator\\URL&#45;&gt;\\Wellid\\Validator\\ValidatorInterface</title>
<path fill="none" stroke="black" stroke-dasharray="1,5" d="M424.944,-540.767C410.123,-544.622 392.066,-551.387 379.491,-563 297.098,-639.096 258.657,-773.66 245.277,-831.868"/>
<polygon fill="none" stroke="black" points="241.819,-831.296 243.065,-841.817 248.652,-832.815 241.819,-831.296"/>
</g>
<!-- \\Wellid\\Validator\\ValidatorTrait -->
<g id="node15" class="node"><title>\\Wellid\\Validator\\ValidatorTrait</title>
<polygon fill="none" stroke="black" points="507.491,-500 396.491,-500 396.491,-464 507.491,-464 507.491,-500"/>
<text text-anchor="middle" x="451.991" y="-479.2" font-family="Courier,monospace" font-size="11.00">ValidatorTrait</text>
</g>
<!-- \\Wellid\\Exception\\Exception -->
<g id="node16" class="node"><title>\\Wellid\\Exception\\Exception</title>
<polygon fill="none" stroke="black" points="276.991,-366 199.991,-366 199.991,-330 276.991,-330 276.991,-366"/>
<text text-anchor="middle" x="238.491" y="-345.2" font-family="Courier,monospace" font-size="11.00">Exception</text>
</g>
<!-- \\Exception -->
<g id="node23" class="node"><title>\\Exception</title>
<ellipse fill="none" stroke="black" cx="48.7457" cy="-348" rx="48.9926" ry="18"/>
<text text-anchor="middle" x="48.7457" y="-344.3" font-family="Times,serif" font-size="14.00" fill="gray">\Exception</text>
</g>
<!-- \\Wellid\\Exception\\Exception&#45;&gt;\\Exception -->
<g id="edge2" class="edge"><title>\\Wellid\\Exception\\Exception&#45;&gt;\\Exception</title>
<path fill="none" stroke="black" d="M199.949,-348C173.625,-348 137.923,-348 107.931,-348"/>
<polygon fill="none" stroke="black" points="107.586,-344.5 97.5858,-348 107.586,-351.5 107.586,-344.5"/>
</g>
<!-- \\Wellid\\Exception\\DataType -->
<g id="node17" class="node"><title>\\Wellid\\Exception\\DataType</title>
<polygon fill="none" stroke="black" points="487.491,-420 416.491,-420 416.491,-384 487.491,-384 487.491,-420"/>
<text text-anchor="middle" x="451.991" y="-399.2" font-family="Courier,monospace" font-size="11.00">DataType</text>
</g>
<!-- \\Wellid\\Exception\\DataType&#45;&gt;\\Wellid\\Exception\\Exception -->
<g id="edge5" class="edge"><title>\\Wellid\\Exception\\DataType&#45;&gt;\\Wellid\\Exception\\Exception</title>
<path fill="none" stroke="black" d="M416.066,-393.083C380.88,-384.099 326.334,-370.173 287.179,-360.175"/>
<polygon fill="none" stroke="black" points="287.881,-356.743 277.326,-357.66 286.15,-363.525 287.881,-356.743"/>
</g>
<!-- \\Wellid\\Exception\\DataFormat -->
<g id="node18" class="node"><title>\\Wellid\\Exception\\DataFormat</title>
<polygon fill="none" stroke="black" points="493.991,-366 409.991,-366 409.991,-330 493.991,-330 493.991,-366"/>
<text text-anchor="middle" x="451.991" y="-345.2" font-family="Courier,monospace" font-size="11.00">DataFormat</text>
</g>
<!-- \\Wellid\\Exception\\DataFormat&#45;&gt;\\Wellid\\Exception\\Exception -->
<g id="edge15" class="edge"><title>\\Wellid\\Exception\\DataFormat&#45;&gt;\\Wellid\\Exception\\Exception</title>
<path fill="none" stroke="black" d="M409.961,-348C374.824,-348 324.197,-348 287.247,-348"/>
<polygon fill="none" stroke="black" points="287.212,-344.5 277.212,-348 287.212,-351.5 287.212,-344.5"/>
</g>
<!-- \\Wellid\\Exception\\NotFound -->
<g id="node19" class="node"><title>\\Wellid\\Exception\\NotFound</title>
<polygon fill="none" stroke="black" points="487.491,-312 416.491,-312 416.491,-276 487.491,-276 487.491,-312"/>
<text text-anchor="middle" x="451.991" y="-291.2" font-family="Courier,monospace" font-size="11.00">NotFound</text>
</g>
<!-- \\Wellid\\Exception\\NotFound&#45;&gt;\\Wellid\\Exception\\Exception -->
<g id="edge17" class="edge"><title>\\Wellid\\Exception\\NotFound&#45;&gt;\\Wellid\\Exception\\Exception</title>
<path fill="none" stroke="black" d="M416.066,-302.917C380.88,-311.901 326.334,-325.827 287.179,-335.825"/>
<polygon fill="none" stroke="black" points="286.15,-332.475 277.326,-338.34 287.881,-339.257 286.15,-332.475"/>
</g>
<!-- \\Wellid\\ValidationResult -->
<g id="node20" class="node"><title>\\Wellid\\ValidationResult</title>
<polygon fill="none" stroke="black" points="514.491,-258 389.491,-258 389.491,-222 514.491,-222 514.491,-258"/>
<text text-anchor="middle" x="451.991" y="-237.2" font-family="Courier,monospace" font-size="11.00">ValidationResult</text>
</g>
<!-- \\Wellid\\ValidationResultSet -->
<g id="node21" class="node"><title>\\Wellid\\ValidationResultSet</title>
<polygon fill="none" stroke="black" points="524.491,-204 379.491,-204 379.491,-168 524.491,-168 524.491,-204"/>
<text text-anchor="middle" x="451.991" y="-183.2" font-family="Courier,monospace" font-size="11.00">ValidationResultSet</text>
</g>
<!-- \\Iterator -->
<g id="node24" class="node"><title>\\Iterator</title>
<ellipse fill="none" stroke="black" cx="238.491" cy="-72" rx="38.9931" ry="18"/>
<text text-anchor="middle" x="238.491" y="-68.3" font-family="Times,serif" font-size="14.00" fill="gray">\Iterator</text>
</g>
<!-- \\Wellid\\ValidationResultSet&#45;&gt;\\Iterator -->
<g id="edge11" class="edge"><title>\\Wellid\\ValidationResultSet&#45;&gt;\\Iterator</title>
<path fill="none" stroke="black" stroke-dasharray="1,5" d="M399.312,-167.865C392.557,-165.094 385.797,-162.113 379.491,-159 339.666,-139.341 296.672,-111.541 268.99,-92.6982"/>
<polygon fill="none" stroke="black" points="270.789,-89.6883 260.564,-86.9166 266.829,-95.4603 270.789,-89.6883"/>
</g>
<!-- \\Countable -->
<g id="node25" class="node"><title>\\Countable</title>
<ellipse fill="none" stroke="black" cx="238.491" cy="-18" rx="49.2915" ry="18"/>
<text text-anchor="middle" x="238.491" y="-14.3" font-family="Times,serif" font-size="14.00" fill="gray">\Countable</text>
</g>
<!-- \\Wellid\\ValidationResultSet&#45;&gt;\\Countable -->
<g id="edge12" class="edge"><title>\\Wellid\\ValidationResultSet&#45;&gt;\\Countable</title>
<path fill="none" stroke="black" stroke-dasharray="1,5" d="M392.966,-167.937C388.177,-165.321 383.604,-162.355 379.491,-159 333.056,-121.12 353.605,-83.2708 307.491,-45 301.712,-40.2038 294.975,-36.1828 288.031,-32.8347"/>
<polygon fill="none" stroke="black" points="289.07,-29.4691 278.505,-28.6768 286.27,-35.8847 289.07,-29.4691"/>
</g>
<!-- \\Wellid\\SanitorBridgeTrait -->
<g id="node22" class="node"><title>\\Wellid\\SanitorBridgeTrait</title>
<polygon fill="none" stroke="black" points="520.991,-150 382.991,-150 382.991,-114 520.991,-114 520.991,-150"/>
<text text-anchor="middle" x="451.991" y="-129.2" font-family="Courier,monospace" font-size="11.00">SanitorBridgeTrait</text>
</g>
</g>
</svg>
