<?xml version="1.0" encoding="UTF-8" standalone="no"?>
<!DOCTYPE svg PUBLIC "-//W3C//DTD SVG 1.1//EN"
 "http://www.w3.org/Graphics/SVG/1.1/DTD/svg11.dtd">
<!-- Generated by graphviz version 2.38.0 (20140413.2041)
 -->
<!-- Title: G Pages: 1 -->
<svg width="642pt" height="1382pt"
 viewBox="0.00 0.00 642.07 1382.00" xmlns="http://www.w3.org/2000/svg" xmlns:xlink="http://www.w3.org/1999/xlink">
<g id="graph0" class="graph" transform="scale(1 1) rotate(0) translate(4 1378)">
<title>G</title>
<polygon fill="white" stroke="none" points="-4,4 -4,-1378 638.072,-1378 638.072,4 -4,4"/>
<g id="clust1" class="cluster"><title>cluster_Global</title>
<path fill="none" stroke="gray" d="M200.281,-152C200.281,-152 614.072,-152 614.072,-152 620.072,-152 626.072,-158 626.072,-164 626.072,-164 626.072,-1354 626.072,-1354 626.072,-1360 620.072,-1366 614.072,-1366 614.072,-1366 200.281,-1366 200.281,-1366 194.281,-1366 188.281,-1360 188.281,-1354 188.281,-1354 188.281,-164 188.281,-164 188.281,-158 194.281,-152 200.281,-152"/>
<text text-anchor="middle" x="407.176" y="-1353.2" font-family="Times,serif" font-size="11.00" fill="gray">Global</text>
</g>
<g id="clust2" class="cluster"><title>cluster_\Wellid</title>
<path fill="none" stroke="gray" d="M208.281,-240C208.281,-240 606.072,-240 606.072,-240 612.072,-240 618.072,-246 618.072,-252 618.072,-252 618.072,-1326 618.072,-1326 618.072,-1332 612.072,-1338 606.072,-1338 606.072,-1338 208.281,-1338 208.281,-1338 202.281,-1338 196.281,-1332 196.281,-1326 196.281,-1326 196.281,-252 196.281,-252 196.281,-246 202.281,-240 208.281,-240"/>
<text text-anchor="middle" x="407.176" y="-1325.2" font-family="Times,serif" font-size="11.00" fill="gray">Wellid</text>
</g>
<g id="clust3" class="cluster"><title>cluster_\Wellid\Validator</title>
<path fill="none" stroke="gray" d="M216.281,-536C216.281,-536 589.072,-536 589.072,-536 595.072,-536 601.072,-542 601.072,-548 601.072,-548 601.072,-1298 601.072,-1298 601.072,-1304 595.072,-1310 589.072,-1310 589.072,-1310 216.281,-1310 216.281,-1310 210.281,-1310 204.281,-1304 204.281,-1298 204.281,-1298 204.281,-548 204.281,-548 204.281,-542 210.281,-536 216.281,-536"/>
<text text-anchor="middle" x="402.676" y="-1297.2" font-family="Times,serif" font-size="11.00" fill="gray">Validator</text>
</g>
<g id="clust4" class="cluster"><title>cluster_\Wellid\Exception</title>
<path fill="none" stroke="gray" d="M246.781,-348C246.781,-348 575.572,-348 575.572,-348 581.572,-348 587.572,-354 587.572,-360 587.572,-360 587.572,-516 587.572,-516 587.572,-522 581.572,-528 575.572,-528 575.572,-528 246.781,-528 246.781,-528 240.781,-528 234.781,-522 234.781,-516 234.781,-516 234.781,-360 234.781,-360 234.781,-354 240.781,-348 246.781,-348"/>
<text text-anchor="middle" x="411.176" y="-515.2" font-family="Times,serif" font-size="11.00" fill="gray">Exception</text>
</g>
<g id="clust5" class="cluster"><title>cluster_\WellidUsageExamples</title>
<path fill="none" stroke="gray" d="M486.072,-160C486.072,-160 589.072,-160 589.072,-160 595.072,-160 601.072,-166 601.072,-172 601.072,-172 601.072,-220 601.072,-220 601.072,-226 595.072,-232 589.072,-232 589.072,-232 486.072,-232 486.072,-232 480.072,-232 474.072,-226 474.072,-220 474.072,-220 474.072,-172 474.072,-172 474.072,-166 480.072,-160 486.072,-160"/>
<text text-anchor="middle" x="537.572" y="-219.2" font-family="Times,serif" font-size="11.00" fill="gray">WellidUsageExamples</text>
</g>
<!-- \\Wellid\\Validator\\MIME -->
<g id="node1" class="node"><title>\\Wellid\\Validator\\MIME</title>
<polygon fill="none" stroke="black" points="564.572,-1282 510.572,-1282 510.572,-1246 564.572,-1246 564.572,-1282"/>
<text text-anchor="middle" x="537.572" y="-1261.2" font-family="Courier,monospace" font-size="11.00">MIME</text>
</g>
<!-- \\Wellid\\Validator\\ValidatorInterface -->
<g id="node14" class="node"><title>\\Wellid\\Validator\\ValidatorInterface</title>
<polygon fill="none" stroke="black" points="350.281,-958 212.281,-958 212.281,-922 350.281,-922 350.281,-958"/>
<text text-anchor="middle" x="281.281" y="-937.2" font-family="Courier,monospace" font-size="11.00">ValidatorInterface</text>
</g>
<!-- \\Wellid\\Validator\\MIME&#45;&gt;\\Wellid\\Validator\\ValidatorInterface -->
<g id="edge1" class="edge"><title>\\Wellid\\Validator\\MIME&#45;&gt;\\Wellid\\Validator\\ValidatorInterface</title>
<path fill="none" stroke="black" stroke-dasharray="1,5" d="M510.302,-1258.51C495.766,-1254.46 478.067,-1247.73 465.072,-1237 373.012,-1161.01 314.332,-1025.9 292.221,-967.812"/>
<polygon fill="none" stroke="black" points="295.413,-966.354 288.635,-958.211 288.855,-968.804 295.413,-966.354"/>
</g>
<!-- \\Wellid\\Validator\\Password -->
<g id="node2" class="node"><title>\\Wellid\\Validator\\Password</title>
<polygon fill="none" stroke="black" points="573.072,-1228 502.072,-1228 502.072,-1192 573.072,-1192 573.072,-1228"/>
<text text-anchor="middle" x="537.572" y="-1207.2" font-family="Courier,monospace" font-size="11.00">Password</text>
</g>
<!-- \\Wellid\\Validator\\Password&#45;&gt;\\Wellid\\Validator\\ValidatorInterface -->
<g id="edge3" class="edge"><title>\\Wellid\\Validator\\Password&#45;&gt;\\Wellid\\Validator\\ValidatorInterface</title>
<path fill="none" stroke="black" stroke-dasharray="1,5" d="M501.833,-1201.26C489.449,-1197.06 475.899,-1191.12 465.072,-1183 384.3,-1122.43 322.195,-1016.74 295.945,-967.147"/>
<polygon fill="none" stroke="black" points="298.906,-965.256 291.179,-958.007 292.7,-968.493 298.906,-965.256"/>
</g>
<!-- \\Wellid\\Validator\\MinLength -->
<g id="node3" class="node"><title>\\Wellid\\Validator\\MinLength</title>
<polygon fill="none" stroke="black" points="576.072,-1174 499.072,-1174 499.072,-1138 576.072,-1138 576.072,-1174"/>
<text text-anchor="middle" x="537.572" y="-1153.2" font-family="Courier,monospace" font-size="11.00">MinLength</text>
</g>
<!-- \\Wellid\\Validator\\MinLength&#45;&gt;\\Wellid\\Validator\\ValidatorInterface -->
<g id="edge4" class="edge"><title>\\Wellid\\Validator\\MinLength&#45;&gt;\\Wellid\\Validator\\ValidatorInterface</title>
<path fill="none" stroke="black" stroke-dasharray="1,5" d="M499.065,-1145.35C487.638,-1141.2 475.383,-1135.78 465.072,-1129 395.422,-1083.21 332.133,-1006.58 301.567,-966.408"/>
<polygon fill="none" stroke="black" points="304.186,-964.068 295.377,-958.18 298.592,-968.275 304.186,-964.068"/>
</g>
<!-- \\Wellid\\Validator\\Email -->
<g id="node4" class="node"><title>\\Wellid\\Validator\\Email</title>
<polygon fill="none" stroke="black" points="564.572,-1120 510.572,-1120 510.572,-1084 564.572,-1084 564.572,-1120"/>
<text text-anchor="middle" x="537.572" y="-1099.2" font-family="Courier,monospace" font-size="11.00">Email</text>
</g>
<!-- \\Wellid\\Validator\\Email&#45;&gt;\\Wellid\\Validator\\ValidatorInterface -->
<g id="edge6" class="edge"><title>\\Wellid\\Validator\\Email&#45;&gt;\\Wellid\\Validator\\ValidatorInterface</title>
<path fill="none" stroke="black" stroke-dasharray="1,5" d="M510.334,-1094.03C496.471,-1089.34 479.405,-1082.8 465.072,-1075 406.211,-1042.95 344.976,-993.989 310.438,-964.673"/>
<polygon fill="none" stroke="black" points="312.535,-961.861 302.661,-958.02 307.985,-967.181 312.535,-961.861"/>
</g>
<!-- \\Wellid\\Validator\\Min -->
<g id="node5" class="node"><title>\\Wellid\\Validator\\Min</title>
<polygon fill="none" stroke="black" points="564.572,-1066 510.572,-1066 510.572,-1030 564.572,-1030 564.572,-1066"/>
<text text-anchor="middle" x="537.572" y="-1045.2" font-family="Courier,monospace" font-size="11.00">Min</text>
</g>
<!-- \\Wellid\\Validator\\Min&#45;&gt;\\Wellid\\Validator\\ValidatorInterface -->
<g id="edge7" class="edge"><title>\\Wellid\\Validator\\Min&#45;&gt;\\Wellid\\Validator\\ValidatorInterface</title>
<path fill="none" stroke="black" stroke-dasharray="1,5" d="M510.285,-1038.47C496.712,-1033.46 479.927,-1027.09 465.072,-1021 419.08,-1002.14 367.345,-979.037 330.684,-962.336"/>
<polygon fill="none" stroke="black" points="331.782,-958.99 321.231,-958.02 328.874,-965.357 331.782,-958.99"/>
</g>
<!-- \\Wellid\\Validator\\Max -->
<g id="node6" class="node"><title>\\Wellid\\Validator\\Max</title>
<polygon fill="none" stroke="black" points="564.572,-1012 510.572,-1012 510.572,-976 564.572,-976 564.572,-1012"/>
<text text-anchor="middle" x="537.572" y="-991.2" font-family="Courier,monospace" font-size="11.00">Max</text>
</g>
<!-- \\Wellid\\Validator\\Max&#45;&gt;\\Wellid\\Validator\\ValidatorInterface -->
<g id="edge8" class="edge"><title>\\Wellid\\Validator\\Max&#45;&gt;\\Wellid\\Validator\\ValidatorInterface</title>
<path fill="none" stroke="black" stroke-dasharray="1,5" d="M510.316,-988.424C475.281,-980.985 411.721,-967.487 360.589,-956.629"/>
<polygon fill="none" stroke="black" points="361.049,-953.149 350.54,-954.495 359.595,-959.996 361.049,-953.149"/>
</g>
<!-- \\Wellid\\Validator\\Float -->
<g id="node7" class="node"><title>\\Wellid\\Validator\\Float</title>
<polygon fill="none" stroke="black" points="564.572,-958 510.572,-958 510.572,-922 564.572,-922 564.572,-958"/>
<text text-anchor="middle" x="537.572" y="-937.2" font-family="Courier,monospace" font-size="11.00">Float</text>
</g>
<!-- \\Wellid\\Validator\\Float&#45;&gt;\\Wellid\\Validator\\ValidatorInterface -->
<g id="edge9" class="edge"><title>\\Wellid\\Validator\\Float&#45;&gt;\\Wellid\\Validator\\ValidatorInterface</title>
<path fill="none" stroke="black" stroke-dasharray="1,5" d="M510.316,-940C475.281,-940 411.721,-940 360.589,-940"/>
<polygon fill="none" stroke="black" points="360.54,-936.5 350.54,-940 360.54,-943.5 360.54,-936.5"/>
</g>
<!-- \\Wellid\\Validator\\Required -->
<g id="node8" class="node"><title>\\Wellid\\Validator\\Required</title>
<polygon fill="none" stroke="black" points="573.072,-904 502.072,-904 502.072,-868 573.072,-868 573.072,-904"/>
<text text-anchor="middle" x="537.572" y="-883.2" font-family="Courier,monospace" font-size="11.00">Required</text>
</g>
<!-- \\Wellid\\Validator\\Required&#45;&gt;\\Wellid\\Validator\\ValidatorInterface -->
<g id="edge10" class="edge"><title>\\Wellid\\Validator\\Required&#45;&gt;\\Wellid\\Validator\\ValidatorInterface</title>
<path fill="none" stroke="black" stroke-dasharray="1,5" d="M502.012,-893.339C465.817,-901.025 407.758,-913.354 360.408,-923.409"/>
<polygon fill="none" stroke="black" points="359.533,-920.017 350.478,-925.518 360.987,-926.864 359.533,-920.017"/>
</g>
<!-- \\Wellid\\Validator\\Integer -->
<g id="node9" class="node"><title>\\Wellid\\Validator\\Integer</title>
<polygon fill="none" stroke="black" points="569.572,-850 505.572,-850 505.572,-814 569.572,-814 569.572,-850"/>
<text text-anchor="middle" x="537.572" y="-829.2" font-family="Courier,monospace" font-size="11.00">Integer</text>
</g>
<!-- \\Wellid\\Validator\\Integer&#45;&gt;\\Wellid\\Validator\\ValidatorInterface -->
<g id="edge13" class="edge"><title>\\Wellid\\Validator\\Integer&#45;&gt;\\Wellid\\Validator\\ValidatorInterface</title>
<path fill="none" stroke="black" stroke-dasharray="1,5" d="M505.453,-843.319C492.854,-848.014 478.208,-853.614 465.072,-859 419.08,-877.856 367.345,-900.963 330.684,-917.664"/>
<polygon fill="none" stroke="black" points="328.874,-914.643 321.231,-921.98 331.782,-921.01 328.874,-914.643"/>
</g>
<!-- \\Wellid\\Validator\\Date -->
<g id="node10" class="node"><title>\\Wellid\\Validator\\Date</title>
<polygon fill="none" stroke="black" points="564.572,-796 510.572,-796 510.572,-760 564.572,-760 564.572,-796"/>
<text text-anchor="middle" x="537.572" y="-775.2" font-family="Courier,monospace" font-size="11.00">Date</text>
</g>
<!-- \\Wellid\\Validator\\Date&#45;&gt;\\Wellid\\Validator\\ValidatorInterface -->
<g id="edge14" class="edge"><title>\\Wellid\\Validator\\Date&#45;&gt;\\Wellid\\Validator\\ValidatorInterface</title>
<path fill="none" stroke="black" stroke-dasharray="1,5" d="M510.334,-785.971C496.471,-790.658 479.405,-797.196 465.072,-805 406.211,-837.049 344.976,-886.011 310.438,-915.327"/>
<polygon fill="none" stroke="black" points="307.985,-912.819 302.661,-921.98 312.535,-918.139 307.985,-912.819"/>
</g>
<!-- \\Wellid\\Validator\\Filesize -->
<g id="node11" class="node"><title>\\Wellid\\Validator\\Filesize</title>
<polygon fill="none" stroke="black" points="573.072,-742 502.072,-742 502.072,-706 573.072,-706 573.072,-742"/>
<text text-anchor="middle" x="537.572" y="-721.2" font-family="Courier,monospace" font-size="11.00">Filesize</text>
</g>
<!-- \\Wellid\\Validator\\Filesize&#45;&gt;\\Wellid\\Validator\\ValidatorInterface -->
<g id="edge16" class="edge"><title>\\Wellid\\Validator\\Filesize&#45;&gt;\\Wellid\\Validator\\ValidatorInterface</title>
<path fill="none" stroke="black" stroke-dasharray="1,5" d="M501.993,-733.612C489.761,-737.882 476.27,-743.638 465.072,-751 395.422,-796.79 332.133,-873.416 301.567,-913.592"/>
<polygon fill="none" stroke="black" points="298.592,-911.725 295.377,-921.82 304.186,-915.932 298.592,-911.725"/>
</g>
<!-- \\Wellid\\Validator\\MaxLength -->
<g id="node12" class="node"><title>\\Wellid\\Validator\\MaxLength</title>
<polygon fill="none" stroke="black" points="576.072,-688 499.072,-688 499.072,-652 576.072,-652 576.072,-688"/>
<text text-anchor="middle" x="537.572" y="-667.2" font-family="Courier,monospace" font-size="11.00">MaxLength</text>
</g>
<!-- \\Wellid\\Validator\\MaxLength&#45;&gt;\\Wellid\\Validator\\ValidatorInterface -->
<g id="edge18" class="edge"><title>\\Wellid\\Validator\\MaxLength&#45;&gt;\\Wellid\\Validator\\ValidatorInterface</title>
<path fill="none" stroke="black" stroke-dasharray="1,5" d="M498.9,-679.762C487.34,-683.889 475.05,-689.517 465.072,-697 384.3,-757.575 322.195,-863.264 295.945,-912.853"/>
<polygon fill="none" stroke="black" points="292.7,-911.507 291.179,-921.993 298.906,-914.744 292.7,-911.507"/>
</g>
<!-- \\Wellid\\Validator\\URL -->
<g id="node13" class="node"><title>\\Wellid\\Validator\\URL</title>
<polygon fill="none" stroke="black" points="564.572,-634 510.572,-634 510.572,-598 564.572,-598 564.572,-634"/>
<text text-anchor="middle" x="537.572" y="-613.2" font-family="Courier,monospace" font-size="11.00">URL</text>
</g>
<!-- \\Wellid\\Validator\\URL&#45;&gt;\\Wellid\\Validator\\ValidatorInterface -->
<g id="edge19" class="edge"><title>\\Wellid\\Validator\\URL&#45;&gt;\\Wellid\\Validator\\ValidatorInterface</title>
<path fill="none" stroke="black" stroke-dasharray="1,5" d="M510.302,-621.486C495.766,-625.544 478.067,-632.272 465.072,-643 373.012,-718.993 314.332,-854.098 292.221,-912.188"/>
<polygon fill="none" stroke="black" points="288.855,-911.196 288.635,-921.789 295.413,-913.646 288.855,-911.196"/>
</g>
<!-- \\Wellid\\Validator\\ValidatorTrait -->
<g id="node15" class="node"><title>\\Wellid\\Validator\\ValidatorTrait</title>
<polygon fill="none" stroke="black" points="593.072,-580 482.072,-580 482.072,-544 593.072,-544 593.072,-580"/>
<text text-anchor="middle" x="537.572" y="-559.2" font-family="Courier,monospace" font-size="11.00">ValidatorTrait</text>
</g>
<!-- \\Wellid\\Exception\\Exception -->
<g id="node16" class="node"><title>\\Wellid\\Exception\\Exception</title>
<polygon fill="none" stroke="black" points="319.781,-446 242.781,-446 242.781,-410 319.781,-410 319.781,-446"/>
<text text-anchor="middle" x="281.281" y="-425.2" font-family="Courier,monospace" font-size="11.00">Exception</text>
</g>
<!-- \\Exception -->
<g id="node23" class="node"><title>\\Exception</title>
<ellipse fill="none" stroke="black" cx="48.7457" cy="-428" rx="48.9926" ry="18"/>
<text text-anchor="middle" x="48.7457" y="-424.3" font-family="Times,serif" font-size="14.00" fill="gray">\Exception</text>
</g>
<!-- \\Wellid\\Exception\\Exception&#45;&gt;\\Exception -->
<g id="edge2" class="edge"><title>\\Wellid\\Exception\\Exception&#45;&gt;\\Exception</title>
<path fill="none" stroke="black" d="M242.729,-428C206.189,-428 150.148,-428 107.853,-428"/>
<polygon fill="none" stroke="black" points="107.69,-424.5 97.69,-428 107.69,-431.5 107.69,-424.5"/>
</g>
<!-- \\Wellid\\Exception\\DataType -->
<g id="node17" class="node"><title>\\Wellid\\Exception\\DataType</title>
<polygon fill="none" stroke="black" points="573.072,-500 502.072,-500 502.072,-464 573.072,-464 573.072,-500"/>
<text text-anchor="middle" x="537.572" y="-479.2" font-family="Courier,monospace" font-size="11.00">DataType</text>
</g>
<!-- \\Wellid\\Exception\\DataType&#45;&gt;\\Wellid\\Exception\\Exception -->
<g id="edge5" class="edge"><title>\\Wellid\\Exception\\DataType&#45;&gt;\\Wellid\\Exception\\Exception</title>
<path fill="none" stroke="black" d="M502.012,-474.661C457.547,-465.219 380.085,-448.769 330.018,-438.137"/>
<polygon fill="none" stroke="black" points="330.589,-434.68 320.08,-436.027 329.135,-441.528 330.589,-434.68"/>
</g>
<!-- \\Wellid\\Exception\\DataFormat -->
<g id="node18" class="node"><title>\\Wellid\\Exception\\DataFormat</title>
<polygon fill="none" stroke="black" points="579.572,-446 495.572,-446 495.572,-410 579.572,-410 579.572,-446"/>
<text text-anchor="middle" x="537.572" y="-425.2" font-family="Courier,monospace" font-size="11.00">DataFormat</text>
</g>
<!-- \\Wellid\\Exception\\DataFormat&#45;&gt;\\Wellid\\Exception\\Exception -->
<g id="edge15" class="edge"><title>\\Wellid\\Exception\\DataFormat&#45;&gt;\\Wellid\\Exception\\Exception</title>
<path fill="none" stroke="black" d="M495.433,-428C450.253,-428 377.797,-428 330.116,-428"/>
<polygon fill="none" stroke="black" points="330.041,-424.5 320.041,-428 330.041,-431.5 330.041,-424.5"/>
</g>
<!-- \\Wellid\\Exception\\NotFound -->
<g id="node19" class="node"><title>\\Wellid\\Exception\\NotFound</title>
<polygon fill="none" stroke="black" points="573.072,-392 502.072,-392 502.072,-356 573.072,-356 573.072,-392"/>
<text text-anchor="middle" x="537.572" y="-371.2" font-family="Courier,monospace" font-size="11.00">NotFound</text>
</g>
<!-- \\Wellid\\Exception\\NotFound&#45;&gt;\\Wellid\\Exception\\Exception -->
<g id="edge17" class="edge"><title>\\Wellid\\Exception\\NotFound&#45;&gt;\\Wellid\\Exception\\Exception</title>
<path fill="none" stroke="black" d="M502.012,-381.339C457.547,-390.781 380.085,-407.231 330.018,-417.863"/>
<polygon fill="none" stroke="black" points="329.135,-414.472 320.08,-419.973 330.589,-421.32 329.135,-414.472"/>
</g>
<!-- \\Wellid\\ValidationResult -->
<g id="node20" class="node"><title>\\Wellid\\ValidationResult</title>
<polygon fill="none" stroke="black" points="600.072,-338 475.072,-338 475.072,-302 600.072,-302 600.072,-338"/>
<text text-anchor="middle" x="537.572" y="-317.2" font-family="Courier,monospace" font-size="11.00">ValidationResult</text>
</g>
<!-- \\Wellid\\ValidationResultSet -->
<g id="node21" class="node"><title>\\Wellid\\ValidationResultSet</title>
<polygon fill="none" stroke="black" points="610.072,-284 465.072,-284 465.072,-248 610.072,-248 610.072,-284"/>
<text text-anchor="middle" x="537.572" y="-263.2" font-family="Courier,monospace" font-size="11.00">ValidationResultSet</text>
</g>
<!-- \\Iterator -->
<g id="node24" class="node"><title>\\Iterator</title>
<ellipse fill="none" stroke="black" cx="281.281" cy="-126" rx="38.9931" ry="18"/>
<text text-anchor="middle" x="281.281" y="-122.3" font-family="Times,serif" font-size="14.00" fill="gray">\Iterator</text>
</g>
<!-- \\Wellid\\ValidationResultSet&#45;&gt;\\Iterator -->
<g id="edge11" class="edge"><title>\\Wellid\\ValidationResultSet&#45;&gt;\\Iterator</title>
<path fill="none" stroke="black" stroke-dasharray="1,5" d="M490.734,-247.926C482.106,-244.2 473.235,-240.142 465.072,-236 409.654,-207.884 348.361,-169.373 312.698,-146.169"/>
<polygon fill="none" stroke="black" points="314.488,-143.158 304.203,-140.615 310.658,-149.017 314.488,-143.158"/>
</g>
<!-- \\Countable -->
<g id="node25" class="node"><title>\\Countable</title>
<ellipse fill="none" stroke="black" cx="281.281" cy="-72" rx="49.2915" ry="18"/>
<text text-anchor="middle" x="281.281" y="-68.3" font-family="Times,serif" font-size="14.00" fill="gray">\Countable</text>
</g>
<!-- \\Wellid\\ValidationResultSet&#45;&gt;\\Countable -->
<g id="edge12" class="edge"><title>\\Wellid\\ValidationResultSet&#45;&gt;\\Countable</title>
<path fill="none" stroke="black" stroke-dasharray="1,5" d="M481.826,-247.823C475.783,-244.465 470.032,-240.549 465.072,-236 414.373,-189.512 447.286,-141.335 393.072,-99 378.063,-87.2799 358.692,-80.5553 340.356,-76.7269"/>
<polygon fill="none" stroke="black" points="340.777,-73.2458 330.31,-74.8846 339.514,-80.131 340.777,-73.2458"/>
</g>
<!-- \\WellidUsageExamples\\AccountBalance -->
<g id="node22" class="node"><title>\\WellidUsageExamples\\AccountBalance</title>
<polygon fill="none" stroke="black" points="593.072,-204 482.072,-204 482.072,-168 593.072,-168 593.072,-204"/>
<text text-anchor="middle" x="537.572" y="-183.2" font-family="Courier,monospace" font-size="11.00">AccountBalance</text>
</g>
<!-- \\Wellid\\ValidatableInterface -->
<g id="node26" class="node"><title>\\Wellid\\ValidatableInterface</title>
<ellipse fill="none" stroke="black" cx="281.281" cy="-18" rx="111.581" ry="18"/>
<text text-anchor="middle" x="281.281" y="-14.3" font-family="Times,serif" font-size="14.00" fill="gray">\Wellid\ValidatableInterface</text>
</g>
<!-- \\WellidUsageExamples\\AccountBalance&#45;&gt;\\Wellid\\ValidatableInterface -->
<g id="edge20" class="edge"><title>\\WellidUsageExamples\\AccountBalance&#45;&gt;\\Wellid\\ValidatableInterface</title>
<path fill="none" stroke="black" stroke-dasharray="1,5" d="M523.355,-167.714C500.406,-137.356 450.143,-76.7607 393.072,-45 385.467,-40.7682 377.208,-37.1937 368.743,-34.1754"/>
<polygon fill="none" stroke="black" points="369.715,-30.8106 359.122,-30.9986 367.52,-37.4576 369.715,-30.8106"/>
</g>
</g>
</svg>
