<?xml version="1.0" encoding="UTF-8" standalone="no"?>
<!DOCTYPE svg PUBLIC "-//W3C//DTD SVG 1.1//EN"
 "http://www.w3.org/Graphics/SVG/1.1/DTD/svg11.dtd">
<!-- Generated by graphviz version 2.38.0 (20140413.2041)
 -->
<!-- Title: G Pages: 1 -->
<svg width="953pt" height="1788pt"
 viewBox="0.00 0.00 952.87 1788.00" xmlns="http://www.w3.org/2000/svg" xmlns:xlink="http://www.w3.org/1999/xlink">
<g id="graph0" class="graph" transform="scale(1 1) rotate(0) translate(4 1784)">
<title>G</title>
<polygon fill="white" stroke="none" points="-4,4 -4,-1784 948.869,-1784 948.869,4 -4,4"/>
<g id="clust1" class="cluster"><title>cluster_Global</title>
<path fill="none" stroke="gray" d="M217.18,-260C217.18,-260 924.869,-260 924.869,-260 930.869,-260 936.869,-266 936.869,-272 936.869,-272 936.869,-1760 936.869,-1760 936.869,-1766 930.869,-1772 924.869,-1772 924.869,-1772 217.18,-1772 217.18,-1772 211.18,-1772 205.18,-1766 205.18,-1760 205.18,-1760 205.18,-272 205.18,-272 205.18,-266 211.18,-260 217.18,-260"/>
<text text-anchor="middle" x="571.024" y="-1759.2" font-family="Times,serif" font-size="11.00" fill="gray">Global</text>
</g>
<g id="clust2" class="cluster"><title>cluster_\Wellid</title>
<path fill="none" stroke="gray" d="M225.18,-268C225.18,-268 659.869,-268 659.869,-268 665.869,-268 671.869,-274 671.869,-280 671.869,-280 671.869,-1732 671.869,-1732 671.869,-1738 665.869,-1744 659.869,-1744 659.869,-1744 225.18,-1744 225.18,-1744 219.18,-1744 213.18,-1738 213.18,-1732 213.18,-1732 213.18,-280 213.18,-280 213.18,-274 219.18,-268 225.18,-268"/>
<text text-anchor="middle" x="442.524" y="-1731.2" font-family="Times,serif" font-size="11.00" fill="gray">Wellid</text>
</g>
<g id="clust3" class="cluster"><title>cluster_\Wellid\Validator</title>
<path fill="none" stroke="gray" d="M233.18,-834C233.18,-834 632.869,-834 632.869,-834 638.869,-834 644.869,-840 644.869,-846 644.869,-846 644.869,-1704 644.869,-1704 644.869,-1710 638.869,-1716 632.869,-1716 632.869,-1716 233.18,-1716 233.18,-1716 227.18,-1716 221.18,-1710 221.18,-1704 221.18,-1704 221.18,-846 221.18,-846 221.18,-840 227.18,-834 233.18,-834"/>
<text text-anchor="middle" x="433.024" y="-1703.2" font-family="Times,serif" font-size="11.00" fill="gray">Validator</text>
</g>
<g id="clust4" class="cluster"><title>cluster_\Wellid\Exception</title>
<path fill="none" stroke="gray" d="M263.68,-646C263.68,-646 619.369,-646 619.369,-646 625.369,-646 631.369,-652 631.369,-658 631.369,-658 631.369,-814 631.369,-814 631.369,-820 625.369,-826 619.369,-826 619.369,-826 263.68,-826 263.68,-826 257.68,-826 251.68,-820 251.68,-814 251.68,-814 251.68,-658 251.68,-658 251.68,-652 257.68,-646 263.68,-646"/>
<text text-anchor="middle" x="441.524" y="-813.2" font-family="Times,serif" font-size="11.00" fill="gray">Exception</text>
</g>
<g id="clust5" class="cluster"><title>cluster_\WellidUsageExamples</title>
<path fill="none" stroke="gray" d="M739.869,-376C739.869,-376 916.869,-376 916.869,-376 922.869,-376 928.869,-382 928.869,-388 928.869,-388 928.869,-544 928.869,-544 928.869,-550 922.869,-556 916.869,-556 916.869,-556 739.869,-556 739.869,-556 733.869,-556 727.869,-550 727.869,-544 727.869,-544 727.869,-388 727.869,-388 727.869,-382 733.869,-376 739.869,-376"/>
<text text-anchor="middle" x="828.369" y="-543.2" font-family="Times,serif" font-size="11.00" fill="gray">WellidUsageExamples</text>
</g>
<!-- \\Wellid\\Validator\\Float -->
<g id="node1" class="node"><title>\\Wellid\\Validator\\Float</title>
<polygon fill="none" stroke="black" points="608.369,-1688 554.369,-1688 554.369,-1652 608.369,-1652 608.369,-1688"/>
<text text-anchor="middle" x="581.369" y="-1667.2" font-family="Courier,monospace" font-size="11.00">Float</text>
</g>
<!-- \\Wellid\\Validator\\ValidatorInterface -->
<g id="node16" class="node"><title>\\Wellid\\Validator\\ValidatorInterface</title>
<polygon fill="none" stroke="black" points="367.18,-1310 229.18,-1310 229.18,-1274 367.18,-1274 367.18,-1310"/>
<text text-anchor="middle" x="298.18" y="-1289.2" font-family="Courier,monospace" font-size="11.00">ValidatorInterface</text>
</g>
<!-- \\Wellid\\Validator\\Float&#45;&gt;\\Wellid\\Validator\\ValidatorInterface -->
<g id="edge4" class="edge"><title>\\Wellid\\Validator\\Float&#45;&gt;\\Wellid\\Validator\\ValidatorInterface</title>
<path fill="none" stroke="black" stroke-dasharray="1,5" d="M554.146,-1666.31C536.891,-1662.77 514.66,-1655.95 498.869,-1643 389.251,-1553.13 328.225,-1386.28 307.411,-1320.1"/>
<polygon fill="none" stroke="black" points="310.703,-1318.9 304.415,-1310.37 304.013,-1320.96 310.703,-1318.9"/>
</g>
<!-- \\Wellid\\Validator\\Email -->
<g id="node2" class="node"><title>\\Wellid\\Validator\\Email</title>
<polygon fill="none" stroke="black" points="608.369,-1634 554.369,-1634 554.369,-1598 608.369,-1598 608.369,-1634"/>
<text text-anchor="middle" x="581.369" y="-1613.2" font-family="Courier,monospace" font-size="11.00">Email</text>
</g>
<!-- \\Wellid\\Validator\\Email&#45;&gt;\\Wellid\\Validator\\ValidatorInterface -->
<g id="edge5" class="edge"><title>\\Wellid\\Validator\\Email&#45;&gt;\\Wellid\\Validator\\ValidatorInterface</title>
<path fill="none" stroke="black" stroke-dasharray="1,5" d="M554.077,-1611.84C537.006,-1608.11 515.014,-1601.26 498.869,-1589 400.864,-1514.59 334.986,-1377.56 310.181,-1319.33"/>
<polygon fill="none" stroke="black" points="313.382,-1317.92 306.29,-1310.05 306.926,-1320.62 313.382,-1317.92"/>
</g>
<!-- \\Wellid\\Validator\\MacAddress -->
<g id="node3" class="node"><title>\\Wellid\\Validator\\MacAddress</title>
<polygon fill="none" stroke="black" points="623.369,-1580 539.369,-1580 539.369,-1544 623.369,-1544 623.369,-1580"/>
<text text-anchor="middle" x="581.369" y="-1559.2" font-family="Courier,monospace" font-size="11.00">MacAddress</text>
</g>
<!-- \\Wellid\\Validator\\MacAddress&#45;&gt;\\Wellid\\Validator\\ValidatorInterface -->
<g id="edge6" class="edge"><title>\\Wellid\\Validator\\MacAddress&#45;&gt;\\Wellid\\Validator\\ValidatorInterface</title>
<path fill="none" stroke="black" stroke-dasharray="1,5" d="M539.318,-1553.29C525.679,-1549.16 510.913,-1543.27 498.869,-1535 412.582,-1475.79 343.574,-1369.04 314.333,-1319.12"/>
<polygon fill="none" stroke="black" points="317.215,-1317.11 309.181,-1310.2 311.154,-1320.61 317.215,-1317.11"/>
</g>
<!-- \\Wellid\\Validator\\Password -->
<g id="node4" class="node"><title>\\Wellid\\Validator\\Password</title>
<polygon fill="none" stroke="black" points="616.869,-1526 545.869,-1526 545.869,-1490 616.869,-1490 616.869,-1526"/>
<text text-anchor="middle" x="581.369" y="-1505.2" font-family="Courier,monospace" font-size="11.00">Password</text>
</g>
<!-- \\Wellid\\Validator\\Password&#45;&gt;\\Wellid\\Validator\\ValidatorInterface -->
<g id="edge7" class="edge"><title>\\Wellid\\Validator\\Password&#45;&gt;\\Wellid\\Validator\\ValidatorInterface</title>
<path fill="none" stroke="black" stroke-dasharray="1,5" d="M545.618,-1500.11C530.587,-1495.81 513.197,-1489.57 498.869,-1481 423.554,-1435.97 353.432,-1358.15 319.884,-1317.85"/>
<polygon fill="none" stroke="black" points="322.541,-1315.57 313.481,-1310.08 317.139,-1320.03 322.541,-1315.57"/>
</g>
<!-- \\Wellid\\Validator\\MIME -->
<g id="node5" class="node"><title>\\Wellid\\Validator\\MIME</title>
<polygon fill="none" stroke="black" points="608.369,-1472 554.369,-1472 554.369,-1436 608.369,-1436 608.369,-1472"/>
<text text-anchor="middle" x="581.369" y="-1451.2" font-family="Courier,monospace" font-size="11.00">MIME</text>
</g>
<!-- \\Wellid\\Validator\\MIME&#45;&gt;\\Wellid\\Validator\\ValidatorInterface -->
<g id="edge8" class="edge"><title>\\Wellid\\Validator\\MIME&#45;&gt;\\Wellid\\Validator\\ValidatorInterface</title>
<path fill="none" stroke="black" stroke-dasharray="1,5" d="M554.324,-1447.35C537.96,-1442.7 516.657,-1435.75 498.869,-1427 434.81,-1395.49 367.45,-1346.02 329.635,-1316.53"/>
<polygon fill="none" stroke="black" points="331.602,-1313.62 321.577,-1310.19 327.277,-1319.12 331.602,-1313.62"/>
</g>
<!-- \\Wellid\\Validator\\MaxLength -->
<g id="node6" class="node"><title>\\Wellid\\Validator\\MaxLength</title>
<polygon fill="none" stroke="black" points="619.869,-1418 542.869,-1418 542.869,-1382 619.869,-1382 619.869,-1418"/>
<text text-anchor="middle" x="581.369" y="-1397.2" font-family="Courier,monospace" font-size="11.00">MaxLength</text>
</g>
<!-- \\Wellid\\Validator\\MaxLength&#45;&gt;\\Wellid\\Validator\\ValidatorInterface -->
<g id="edge9" class="edge"><title>\\Wellid\\Validator\\MaxLength&#45;&gt;\\Wellid\\Validator\\ValidatorInterface</title>
<path fill="none" stroke="black" stroke-dasharray="1,5" d="M542.863,-1388.14C528.973,-1383.6 513.137,-1378.25 498.869,-1373 448,-1354.28 390.749,-1330.8 350.633,-1313.95"/>
<polygon fill="none" stroke="black" points="351.902,-1310.69 341.327,-1310.03 349.184,-1317.14 351.902,-1310.69"/>
</g>
<!-- \\Wellid\\Validator\\Filesize -->
<g id="node7" class="node"><title>\\Wellid\\Validator\\Filesize</title>
<polygon fill="none" stroke="black" points="616.869,-1364 545.869,-1364 545.869,-1328 616.869,-1328 616.869,-1364"/>
<text text-anchor="middle" x="581.369" y="-1343.2" font-family="Courier,monospace" font-size="11.00">Filesize</text>
</g>
<!-- \\Wellid\\Validator\\Filesize&#45;&gt;\\Wellid\\Validator\\ValidatorInterface -->
<g id="edge10" class="edge"><title>\\Wellid\\Validator\\Filesize&#45;&gt;\\Wellid\\Validator\\ValidatorInterface</title>
<path fill="none" stroke="black" stroke-dasharray="1,5" d="M545.607,-1339.32C503.901,-1331.32 432.704,-1317.64 377.53,-1307.05"/>
<polygon fill="none" stroke="black" points="377.906,-1303.55 367.426,-1305.11 376.586,-1310.43 377.906,-1303.55"/>
</g>
<!-- \\Wellid\\Validator\\MinLength -->
<g id="node8" class="node"><title>\\Wellid\\Validator\\MinLength</title>
<polygon fill="none" stroke="black" points="619.869,-1310 542.869,-1310 542.869,-1274 619.869,-1274 619.869,-1310"/>
<text text-anchor="middle" x="581.369" y="-1289.2" font-family="Courier,monospace" font-size="11.00">MinLength</text>
</g>
<!-- \\Wellid\\Validator\\MinLength&#45;&gt;\\Wellid\\Validator\\ValidatorInterface -->
<g id="edge11" class="edge"><title>\\Wellid\\Validator\\MinLength&#45;&gt;\\Wellid\\Validator\\ValidatorInterface</title>
<path fill="none" stroke="black" stroke-dasharray="1,5" d="M542.738,-1292C500.701,-1292 431.481,-1292 377.557,-1292"/>
<polygon fill="none" stroke="black" points="377.333,-1288.5 367.333,-1292 377.333,-1295.5 377.333,-1288.5"/>
</g>
<!-- \\Wellid\\Validator\\Min -->
<g id="node9" class="node"><title>\\Wellid\\Validator\\Min</title>
<polygon fill="none" stroke="black" points="608.369,-1256 554.369,-1256 554.369,-1220 608.369,-1220 608.369,-1256"/>
<text text-anchor="middle" x="581.369" y="-1235.2" font-family="Courier,monospace" font-size="11.00">Min</text>
</g>
<!-- \\Wellid\\Validator\\Min&#45;&gt;\\Wellid\\Validator\\ValidatorInterface -->
<g id="edge12" class="edge"><title>\\Wellid\\Validator\\Min&#45;&gt;\\Wellid\\Validator\\ValidatorInterface</title>
<path fill="none" stroke="black" stroke-dasharray="1,5" d="M554.167,-1243.03C514.214,-1250.7 436.464,-1265.64 377.272,-1277"/>
<polygon fill="none" stroke="black" points="376.356,-1273.61 367.196,-1278.94 377.677,-1280.49 376.356,-1273.61"/>
</g>
<!-- \\Wellid\\Validator\\Max -->
<g id="node10" class="node"><title>\\Wellid\\Validator\\Max</title>
<polygon fill="none" stroke="black" points="608.369,-1202 554.369,-1202 554.369,-1166 608.369,-1166 608.369,-1202"/>
<text text-anchor="middle" x="581.369" y="-1181.2" font-family="Courier,monospace" font-size="11.00">Max</text>
</g>
<!-- \\Wellid\\Validator\\Max&#45;&gt;\\Wellid\\Validator\\ValidatorInterface -->
<g id="edge13" class="edge"><title>\\Wellid\\Validator\\Max&#45;&gt;\\Wellid\\Validator\\ValidatorInterface</title>
<path fill="none" stroke="black" stroke-dasharray="1,5" d="M554.158,-1192.2C538.105,-1197.34 517.193,-1204.26 498.869,-1211 448,-1229.72 390.749,-1253.2 350.633,-1270.05"/>
<polygon fill="none" stroke="black" points="349.184,-1266.86 341.327,-1273.97 351.902,-1273.31 349.184,-1266.86"/>
</g>
<!-- \\Wellid\\Validator\\Integer -->
<g id="node11" class="node"><title>\\Wellid\\Validator\\Integer</title>
<polygon fill="none" stroke="black" points="613.369,-1148 549.369,-1148 549.369,-1112 613.369,-1112 613.369,-1148"/>
<text text-anchor="middle" x="581.369" y="-1127.2" font-family="Courier,monospace" font-size="11.00">Integer</text>
</g>
<!-- \\Wellid\\Validator\\Integer&#45;&gt;\\Wellid\\Validator\\ValidatorInterface -->
<g id="edge14" class="edge"><title>\\Wellid\\Validator\\Integer&#45;&gt;\\Wellid\\Validator\\ValidatorInterface</title>
<path fill="none" stroke="black" stroke-dasharray="1,5" d="M549.002,-1138.19C533.514,-1142.79 514.784,-1149.17 498.869,-1157 434.81,-1188.51 367.45,-1237.98 329.635,-1267.47"/>
<polygon fill="none" stroke="black" points="327.277,-1264.88 321.577,-1273.81 331.602,-1270.38 327.277,-1264.88"/>
</g>
<!-- \\Wellid\\Validator\\Date -->
<g id="node12" class="node"><title>\\Wellid\\Validator\\Date</title>
<polygon fill="none" stroke="black" points="608.369,-1094 554.369,-1094 554.369,-1058 608.369,-1058 608.369,-1094"/>
<text text-anchor="middle" x="581.369" y="-1073.2" font-family="Courier,monospace" font-size="11.00">Date</text>
</g>
<!-- \\Wellid\\Validator\\Date&#45;&gt;\\Wellid\\Validator\\ValidatorInterface -->
<g id="edge15" class="edge"><title>\\Wellid\\Validator\\Date&#45;&gt;\\Wellid\\Validator\\ValidatorInterface</title>
<path fill="none" stroke="black" stroke-dasharray="1,5" d="M554.162,-1081.57C537.537,-1085.83 516.011,-1092.75 498.869,-1103 423.554,-1148.03 353.432,-1225.85 319.884,-1266.15"/>
<polygon fill="none" stroke="black" points="317.139,-1263.97 313.481,-1273.92 322.541,-1268.43 317.139,-1263.97"/>
</g>
<!-- \\Wellid\\Validator\\Boolean -->
<g id="node13" class="node"><title>\\Wellid\\Validator\\Boolean</title>
<polygon fill="none" stroke="black" points="613.369,-1040 549.369,-1040 549.369,-1004 613.369,-1004 613.369,-1040"/>
<text text-anchor="middle" x="581.369" y="-1019.2" font-family="Courier,monospace" font-size="11.00">Boolean</text>
</g>
<!-- \\Wellid\\Validator\\Boolean&#45;&gt;\\Wellid\\Validator\\ValidatorInterface -->
<g id="edge16" class="edge"><title>\\Wellid\\Validator\\Boolean&#45;&gt;\\Wellid\\Validator\\ValidatorInterface</title>
<path fill="none" stroke="black" stroke-dasharray="1,5" d="M549.08,-1027.99C533.075,-1032.1 513.862,-1038.71 498.869,-1049 412.582,-1108.21 343.574,-1214.96 314.333,-1264.88"/>
<polygon fill="none" stroke="black" points="311.154,-1263.39 309.181,-1273.8 317.215,-1266.89 311.154,-1263.39"/>
</g>
<!-- \\Wellid\\Validator\\IPAddress -->
<g id="node14" class="node"><title>\\Wellid\\Validator\\IPAddress</title>
<polygon fill="none" stroke="black" points="619.869,-986 542.869,-986 542.869,-950 619.869,-950 619.869,-986"/>
<text text-anchor="middle" x="581.369" y="-965.2" font-family="Courier,monospace" font-size="11.00">IPAddress</text>
</g>
<!-- \\Wellid\\Validator\\IPAddress&#45;&gt;\\Wellid\\Validator\\ValidatorInterface -->
<g id="edge17" class="edge"><title>\\Wellid\\Validator\\IPAddress&#45;&gt;\\Wellid\\Validator\\ValidatorInterface</title>
<path fill="none" stroke="black" stroke-dasharray="1,5" d="M542.59,-974.991C527.893,-979.057 511.571,-985.356 498.869,-995 400.864,-1069.41 334.986,-1206.44 310.181,-1264.67"/>
<polygon fill="none" stroke="black" points="306.926,-1263.38 306.29,-1273.95 313.382,-1266.08 306.926,-1263.38"/>
</g>
<!-- \\Wellid\\Validator\\URL -->
<g id="node15" class="node"><title>\\Wellid\\Validator\\URL</title>
<polygon fill="none" stroke="black" points="608.369,-932 554.369,-932 554.369,-896 608.369,-896 608.369,-932"/>
<text text-anchor="middle" x="581.369" y="-911.2" font-family="Courier,monospace" font-size="11.00">URL</text>
</g>
<!-- \\Wellid\\Validator\\URL&#45;&gt;\\Wellid\\Validator\\ValidatorInterface -->
<g id="edge18" class="edge"><title>\\Wellid\\Validator\\URL&#45;&gt;\\Wellid\\Validator\\ValidatorInterface</title>
<path fill="none" stroke="black" stroke-dasharray="1,5" d="M554.146,-917.686C536.891,-921.231 514.66,-928.053 498.869,-941 389.251,-1030.87 328.225,-1197.72 307.411,-1263.9"/>
<polygon fill="none" stroke="black" points="304.013,-1263.04 304.415,-1273.63 310.703,-1265.1 304.013,-1263.04"/>
</g>
<!-- \\Wellid\\Validator\\ValidatorTrait -->
<g id="node17" class="node"><title>\\Wellid\\Validator\\ValidatorTrait</title>
<polygon fill="none" stroke="black" points="636.869,-878 525.869,-878 525.869,-842 636.869,-842 636.869,-878"/>
<text text-anchor="middle" x="581.369" y="-857.2" font-family="Courier,monospace" font-size="11.00">ValidatorTrait</text>
</g>
<!-- \\Wellid\\Exception\\Exception -->
<g id="node18" class="node"><title>\\Wellid\\Exception\\Exception</title>
<polygon fill="none" stroke="black" points="336.68,-744 259.68,-744 259.68,-708 336.68,-708 336.68,-744"/>
<text text-anchor="middle" x="298.18" y="-723.2" font-family="Courier,monospace" font-size="11.00">Exception</text>
</g>
<!-- \\Exception -->
<g id="node35" class="node"><title>\\Exception</title>
<ellipse fill="none" stroke="black" cx="48.7457" cy="-726" rx="48.9926" ry="18"/>
<text text-anchor="middle" x="48.7457" y="-722.3" font-family="Times,serif" font-size="14.00" fill="gray">\Exception</text>
</g>
<!-- \\Wellid\\Exception\\Exception&#45;&gt;\\Exception -->
<g id="edge19" class="edge"><title>\\Wellid\\Exception\\Exception&#45;&gt;\\Exception</title>
<path fill="none" stroke="black" d="M259.6,-726C219.295,-726 154.778,-726 107.909,-726"/>
<polygon fill="none" stroke="black" points="107.894,-722.5 97.8938,-726 107.894,-729.5 107.894,-722.5"/>
</g>
<!-- \\Wellid\\Exception\\DataType -->
<g id="node19" class="node"><title>\\Wellid\\Exception\\DataType</title>
<polygon fill="none" stroke="black" points="616.869,-798 545.869,-798 545.869,-762 616.869,-762 616.869,-798"/>
<text text-anchor="middle" x="581.369" y="-777.2" font-family="Courier,monospace" font-size="11.00">DataType</text>
</g>
<!-- \\Wellid\\Exception\\DataType&#45;&gt;\\Wellid\\Exception\\Exception -->
<g id="edge20" class="edge"><title>\\Wellid\\Exception\\DataType&#45;&gt;\\Wellid\\Exception\\Exception</title>
<path fill="none" stroke="black" d="M545.607,-773.324C495.671,-763.734 403.455,-746.025 347.087,-735.2"/>
<polygon fill="none" stroke="black" points="347.479,-731.711 336.998,-733.263 346.158,-738.586 347.479,-731.711"/>
</g>
<!-- \\Wellid\\Exception\\DataFormat -->
<g id="node20" class="node"><title>\\Wellid\\Exception\\DataFormat</title>
<polygon fill="none" stroke="black" points="623.369,-744 539.369,-744 539.369,-708 623.369,-708 623.369,-744"/>
<text text-anchor="middle" x="581.369" y="-723.2" font-family="Courier,monospace" font-size="11.00">DataFormat</text>
</g>
<!-- \\Wellid\\Exception\\DataFormat&#45;&gt;\\Wellid\\Exception\\Exception -->
<g id="edge21" class="edge"><title>\\Wellid\\Exception\\DataFormat&#45;&gt;\\Wellid\\Exception\\Exception</title>
<path fill="none" stroke="black" d="M539.18,-726C488.019,-726 400.903,-726 346.888,-726"/>
<polygon fill="none" stroke="black" points="346.876,-722.5 336.876,-726 346.876,-729.5 346.876,-722.5"/>
</g>
<!-- \\Wellid\\Exception\\NotFound -->
<g id="node21" class="node"><title>\\Wellid\\Exception\\NotFound</title>
<polygon fill="none" stroke="black" points="616.869,-690 545.869,-690 545.869,-654 616.869,-654 616.869,-690"/>
<text text-anchor="middle" x="581.369" y="-669.2" font-family="Courier,monospace" font-size="11.00">NotFound</text>
</g>
<!-- \\Wellid\\Exception\\NotFound&#45;&gt;\\Wellid\\Exception\\Exception -->
<g id="edge22" class="edge"><title>\\Wellid\\Exception\\NotFound&#45;&gt;\\Wellid\\Exception\\Exception</title>
<path fill="none" stroke="black" d="M545.607,-678.676C495.671,-688.266 403.455,-705.975 347.087,-716.8"/>
<polygon fill="none" stroke="black" points="346.158,-713.414 336.998,-718.737 347.479,-720.289 346.158,-713.414"/>
</g>
<!-- \\Wellid\\ValidationResult -->
<g id="node22" class="node"><title>\\Wellid\\ValidationResult</title>
<polygon fill="none" stroke="black" points="643.869,-636 518.869,-636 518.869,-600 643.869,-600 643.869,-636"/>
<text text-anchor="middle" x="581.369" y="-615.2" font-family="Courier,monospace" font-size="11.00">ValidationResult</text>
</g>
<!-- \\Wellid\\ValidationResultSet -->
<g id="node23" class="node"><title>\\Wellid\\ValidationResultSet</title>
<polygon fill="none" stroke="black" points="653.869,-582 508.869,-582 508.869,-546 653.869,-546 653.869,-582"/>
<text text-anchor="middle" x="581.369" y="-561.2" font-family="Courier,monospace" font-size="11.00">ValidationResultSet</text>
</g>
<!-- \\Iterator -->
<g id="node32" class="node"><title>\\Iterator</title>
<ellipse fill="none" stroke="black" cx="298.18" cy="-234" rx="38.9931" ry="18"/>
<text text-anchor="middle" x="298.18" y="-230.3" font-family="Times,serif" font-size="14.00" fill="gray">\Iterator</text>
</g>
<!-- \\Wellid\\ValidationResultSet&#45;&gt;\\Iterator -->
<g id="edge1" class="edge"><title>\\Wellid\\ValidationResultSet&#45;&gt;\\Iterator</title>
<path fill="none" stroke="black" stroke-dasharray="1,5" d="M513.094,-545.895C508.06,-543.305 503.246,-540.355 498.869,-537 399.373,-460.733 333.902,-319.96 309.676,-261.042"/>
<polygon fill="none" stroke="black" points="312.879,-259.627 305.887,-251.667 306.389,-262.25 312.879,-259.627"/>
</g>
<!-- \\Countable -->
<g id="node33" class="node"><title>\\Countable</title>
<ellipse fill="none" stroke="black" cx="298.18" cy="-180" rx="49.2915" ry="18"/>
<text text-anchor="middle" x="298.18" y="-176.3" font-family="Times,serif" font-size="14.00" fill="gray">\Countable</text>
</g>
<!-- \\Wellid\\ValidationResultSet&#45;&gt;\\Countable -->
<g id="edge2" class="edge"><title>\\Wellid\\ValidationResultSet&#45;&gt;\\Countable</title>
<path fill="none" stroke="black" stroke-dasharray="1,5" d="M508.958,-545.796C505.27,-543.239 501.86,-540.324 498.869,-537 398.441,-425.423 533.358,-312.807 426.869,-207 408.866,-189.113 382.176,-181.71 357.845,-179.04"/>
<polygon fill="none" stroke="black" points="357.854,-175.528 347.594,-178.169 357.262,-182.503 357.854,-175.528"/>
</g>
<!-- \\Wellid\\ValidatorHolder -->
<g id="node24" class="node"><title>\\Wellid\\ValidatorHolder</title>
<polygon fill="none" stroke="black" points="640.369,-528 522.369,-528 522.369,-492 640.369,-492 640.369,-528"/>
<text text-anchor="middle" x="581.369" y="-507.2" font-family="Courier,monospace" font-size="11.00">ValidatorHolder</text>
</g>
<!-- \\Wellid\\ValidatorHolderInterface -->
<g id="node34" class="node"><title>\\Wellid\\ValidatorHolderInterface</title>
<ellipse fill="none" stroke="black" cx="298.18" cy="-126" rx="128.877" ry="18"/>
<text text-anchor="middle" x="298.18" y="-122.3" font-family="Times,serif" font-size="14.00" fill="gray">\Wellid\ValidatorHolderInterface</text>
</g>
<!-- \\Wellid\\ValidatorHolder&#45;&gt;\\Wellid\\ValidatorHolderInterface -->
<g id="edge3" class="edge"><title>\\Wellid\\ValidatorHolder&#45;&gt;\\Wellid\\ValidatorHolderInterface</title>
<path fill="none" stroke="black" stroke-dasharray="1,5" d="M521.958,-499.002C513.277,-495.159 505.151,-489.98 498.869,-483 398.441,-371.423 533.358,-258.807 426.869,-153 422.28,-148.441 417.127,-144.563 411.593,-141.271"/>
<polygon fill="none" stroke="black" points="413.091,-138.104 402.608,-136.566 409.843,-144.306 413.091,-138.104"/>
</g>
<!-- \\Wellid\\ValidatableInterface -->
<g id="node25" class="node"><title>\\Wellid\\ValidatableInterface</title>
<polygon fill="none" stroke="black" points="657.369,-474 505.369,-474 505.369,-438 657.369,-438 657.369,-474"/>
<text text-anchor="middle" x="581.369" y="-453.2" font-family="Courier,monospace" font-size="11.00">ValidatableInterface</text>
</g>
<!-- \\Wellid\\ValidatableInterface&#45;&gt;\\Wellid\\ValidatorHolderInterface -->
<g id="edge28" class="edge"><title>\\Wellid\\ValidatableInterface&#45;&gt;\\Wellid\\ValidatorHolderInterface</title>
<path fill="none" stroke="black" d="M509.487,-437.905C505.618,-435.322 502.028,-432.371 498.869,-429 412.175,-336.505 518.583,-240.519 426.869,-153 422.135,-148.483 416.845,-144.642 411.184,-141.381"/>
<polygon fill="none" stroke="black" points="412.511,-138.129 402.01,-136.721 409.341,-144.37 412.511,-138.129"/>
</g>
<!-- \\Wellid\\Internal\\InternalInterface -->
<g id="node36" class="node"><title>\\Wellid\\Internal\\InternalInterface</title>
<ellipse fill="none" stroke="black" cx="298.18" cy="-72" rx="128.077" ry="18"/>
<text text-anchor="middle" x="298.18" y="-68.3" font-family="Times,serif" font-size="14.00" fill="gray">\Wellid\Internal\InternalInterface</text>
</g>
<!-- \\Wellid\\ValidatableInterface&#45;&gt;\\Wellid\\Internal\\InternalInterface -->
<g id="edge27" class="edge"><title>\\Wellid\\ValidatableInterface&#45;&gt;\\Wellid\\Internal\\InternalInterface</title>
<path fill="none" stroke="black" d="M508.958,-437.796C505.27,-435.239 501.86,-432.324 498.869,-429 398.441,-317.423 533.358,-204.807 426.869,-99 422.28,-94.441 417.127,-90.563 411.593,-87.2709"/>
<polygon fill="none" stroke="black" points="413.091,-84.1044 402.608,-82.566 409.843,-90.3057 413.091,-84.1044"/>
</g>
<!-- \\Wellid\\SanitorBridgeInterface -->
<g id="node26" class="node"><title>\\Wellid\\SanitorBridgeInterface</title>
<polygon fill="none" stroke="black" points="663.869,-420 498.869,-420 498.869,-384 663.869,-384 663.869,-420"/>
<text text-anchor="middle" x="581.369" y="-399.2" font-family="Courier,monospace" font-size="11.00">SanitorBridgeInterface</text>
</g>
<!-- \\Wellid\\SanitorBridgeInterface&#45;&gt;\\Wellid\\Internal\\InternalInterface -->
<g id="edge30" class="edge"><title>\\Wellid\\SanitorBridgeInterface&#45;&gt;\\Wellid\\Internal\\InternalInterface</title>
<path fill="none" stroke="black" d="M509.487,-383.905C505.618,-381.322 502.028,-378.371 498.869,-375 412.175,-282.505 518.583,-186.519 426.869,-99 422.135,-94.4832 416.845,-90.6418 411.184,-87.381"/>
<polygon fill="none" stroke="black" points="412.511,-84.1292 402.01,-82.721 409.341,-90.3702 412.511,-84.1292"/>
</g>
<!-- \\Sanitor\\SanitizableInterface -->
<g id="node37" class="node"><title>\\Sanitor\\SanitizableInterface</title>
<ellipse fill="none" stroke="black" cx="298.18" cy="-18" rx="111.28" ry="18"/>
<text text-anchor="middle" x="298.18" y="-14.3" font-family="Times,serif" font-size="14.00" fill="gray">\Sanitor\SanitizableInterface</text>
</g>
<!-- \\Wellid\\SanitorBridgeInterface&#45;&gt;\\Sanitor\\SanitizableInterface -->
<g id="edge29" class="edge"><title>\\Wellid\\SanitorBridgeInterface&#45;&gt;\\Sanitor\\SanitizableInterface</title>
<path fill="none" stroke="black" d="M508.958,-383.796C505.27,-381.239 501.86,-378.324 498.869,-375 398.441,-263.423 533.358,-150.807 426.869,-45 420.992,-39.1609 414.189,-34.4389 406.845,-30.6341"/>
<polygon fill="none" stroke="black" points="407.833,-27.2391 397.281,-26.2902 404.938,-33.6125 407.833,-27.2391"/>
</g>
<!-- \\Wellid\\SanitorBridgeTrait -->
<g id="node27" class="node"><title>\\Wellid\\SanitorBridgeTrait</title>
<polygon fill="none" stroke="black" points="650.369,-366 512.369,-366 512.369,-330 650.369,-330 650.369,-366"/>
<text text-anchor="middle" x="581.369" y="-345.2" font-family="Courier,monospace" font-size="11.00">SanitorBridgeTrait</text>
</g>
<!-- \\Wellid\\ValidatableTrait -->
<g id="node28" class="node"><title>\\Wellid\\ValidatableTrait</title>
<polygon fill="none" stroke="black" points="643.869,-312 518.869,-312 518.869,-276 643.869,-276 643.869,-312"/>
<text text-anchor="middle" x="581.369" y="-291.2" font-family="Courier,monospace" font-size="11.00">ValidatableTrait</text>
</g>
<!-- \\WellidUsageExamples\\AccountBalanceValidators -->
<g id="node29" class="node"><title>\\WellidUsageExamples\\AccountBalanceValidators</title>
<polygon fill="none" stroke="black" points="917.869,-528 738.869,-528 738.869,-492 917.869,-492 917.869,-528"/>
<text text-anchor="middle" x="828.369" y="-507.2" font-family="Courier,monospace" font-size="11.00">AccountBalanceValidators</text>
</g>
<!-- \\WellidUsageExamples\\AccountBalanceValidators&#45;&gt;\\Wellid\\ValidatorHolder -->
<g id="edge23" class="edge"><title>\\WellidUsageExamples\\AccountBalanceValidators&#45;&gt;\\Wellid\\ValidatorHolder</title>
<path fill="none" stroke="black" d="M738.571,-510C709.671,-510 678.057,-510 650.876,-510"/>
<polygon fill="none" stroke="black" points="650.691,-506.5 640.691,-510 650.691,-513.5 650.691,-506.5"/>
</g>
<!-- \\WellidUsageExamples\\AccountBalance -->
<g id="node30" class="node"><title>\\WellidUsageExamples\\AccountBalance</title>
<polygon fill="none" stroke="black" points="883.869,-474 772.869,-474 772.869,-438 883.869,-438 883.869,-474"/>
<text text-anchor="middle" x="828.369" y="-453.2" font-family="Courier,monospace" font-size="11.00">AccountBalance</text>
</g>
<!-- \\WellidUsageExamples\\AccountBalance&#45;&gt;\\Wellid\\ValidatableInterface -->
<g id="edge24" class="edge"><title>\\WellidUsageExamples\\AccountBalance&#45;&gt;\\Wellid\\ValidatableInterface</title>
<path fill="none" stroke="black" stroke-dasharray="1,5" d="M772.691,-456C741.885,-456 702.722,-456 667.941,-456"/>
<polygon fill="none" stroke="black" points="667.782,-452.5 657.782,-456 667.782,-459.5 667.782,-452.5"/>
</g>
<!-- \\WellidUsageExamples\\SanitorWellidEmailExample -->
<g id="node31" class="node"><title>\\WellidUsageExamples\\SanitorWellidEmailExample</title>
<polygon fill="none" stroke="black" points="920.869,-420 735.869,-420 735.869,-384 920.869,-384 920.869,-420"/>
<text text-anchor="middle" x="828.369" y="-399.2" font-family="Courier,monospace" font-size="11.00">SanitorWellidEmailExample</text>
</g>
<!-- \\WellidUsageExamples\\SanitorWellidEmailExample&#45;&gt;\\Wellid\\ValidatableInterface -->
<g id="edge26" class="edge"><title>\\WellidUsageExamples\\SanitorWellidEmailExample&#45;&gt;\\Wellid\\ValidatableInterface</title>
<path fill="none" stroke="black" stroke-dasharray="1,5" d="M745.446,-420.056C720.394,-425.578 692.789,-431.662 667.527,-437.23"/>
<polygon fill="none" stroke="black" points="666.614,-433.848 657.602,-439.418 668.121,-440.683 666.614,-433.848"/>
</g>
<!-- \\WellidUsageExamples\\SanitorWellidEmailExample&#45;&gt;\\Wellid\\SanitorBridgeInterface -->
<g id="edge25" class="edge"><title>\\WellidUsageExamples\\SanitorWellidEmailExample&#45;&gt;\\Wellid\\SanitorBridgeInterface</title>
<path fill="none" stroke="black" stroke-dasharray="1,5" d="M735.791,-402C715.676,-402 694.371,-402 674.244,-402"/>
<polygon fill="none" stroke="black" points="674.156,-398.5 664.155,-402 674.155,-405.5 674.156,-398.5"/>
</g>
</g>
</svg>
