<?xml version="1.0" encoding="UTF-8" standalone="no"?>
<!DOCTYPE svg PUBLIC "-//W3C//DTD SVG 1.1//EN"
 "http://www.w3.org/Graphics/SVG/1.1/DTD/svg11.dtd">
<!-- Generated by graphviz version 2.38.0 (20140413.2041)
 -->
<!-- Title: G Pages: 1 -->
<svg width="642pt" height="1436pt"
 viewBox="0.00 0.00 642.07 1436.00" xmlns="http://www.w3.org/2000/svg" xmlns:xlink="http://www.w3.org/1999/xlink">
<g id="graph0" class="graph" transform="scale(1 1) rotate(0) translate(4 1432)">
<title>G</title>
<polygon fill="white" stroke="none" points="-4,4 -4,-1432 638.072,-1432 638.072,4 -4,4"/>
<g id="clust1" class="cluster"><title>cluster_Global</title>
<path fill="none" stroke="gray" d="M200.281,-152C200.281,-152 614.072,-152 614.072,-152 620.072,-152 626.072,-158 626.072,-164 626.072,-164 626.072,-1408 626.072,-1408 626.072,-1414 620.072,-1420 614.072,-1420 614.072,-1420 200.281,-1420 200.281,-1420 194.281,-1420 188.281,-1414 188.281,-1408 188.281,-1408 188.281,-164 188.281,-164 188.281,-158 194.281,-152 200.281,-152"/>
<text text-anchor="middle" x="407.176" y="-1407.2" font-family="Times,serif" font-size="11.00" fill="gray">Global</text>
</g>
<g id="clust2" class="cluster"><title>cluster_\WellidUsageExamples</title>
<path fill="none" stroke="gray" d="M486.072,-160C486.072,-160 589.072,-160 589.072,-160 595.072,-160 601.072,-166 601.072,-172 601.072,-172 601.072,-220 601.072,-220 601.072,-226 595.072,-232 589.072,-232 589.072,-232 486.072,-232 486.072,-232 480.072,-232 474.072,-226 474.072,-220 474.072,-220 474.072,-172 474.072,-172 474.072,-166 480.072,-160 486.072,-160"/>
<text text-anchor="middle" x="537.572" y="-219.2" font-family="Times,serif" font-size="11.00" fill="gray">WellidUsageExamples</text>
</g>
<g id="clust3" class="cluster"><title>cluster_\Wellid</title>
<path fill="none" stroke="gray" d="M208.281,-240C208.281,-240 606.072,-240 606.072,-240 612.072,-240 618.072,-246 618.072,-252 618.072,-252 618.072,-1380 618.072,-1380 618.072,-1386 612.072,-1392 606.072,-1392 606.072,-1392 208.281,-1392 208.281,-1392 202.281,-1392 196.281,-1386 196.281,-1380 196.281,-1380 196.281,-252 196.281,-252 196.281,-246 202.281,-240 208.281,-240"/>
<text text-anchor="middle" x="407.176" y="-1379.2" font-family="Times,serif" font-size="11.00" fill="gray">Wellid</text>
</g>
<g id="clust4" class="cluster"><title>cluster_\Wellid\Validator</title>
<path fill="none" stroke="gray" d="M216.281,-590C216.281,-590 589.072,-590 589.072,-590 595.072,-590 601.072,-596 601.072,-602 601.072,-602 601.072,-1352 601.072,-1352 601.072,-1358 595.072,-1364 589.072,-1364 589.072,-1364 216.281,-1364 216.281,-1364 210.281,-1364 204.281,-1358 204.281,-1352 204.281,-1352 204.281,-602 204.281,-602 204.281,-596 210.281,-590 216.281,-590"/>
<text text-anchor="middle" x="402.676" y="-1351.2" font-family="Times,serif" font-size="11.00" fill="gray">Validator</text>
</g>
<g id="clust5" class="cluster"><title>cluster_\Wellid\Exception</title>
<path fill="none" stroke="gray" d="M246.781,-402C246.781,-402 575.572,-402 575.572,-402 581.572,-402 587.572,-408 587.572,-414 587.572,-414 587.572,-570 587.572,-570 587.572,-576 581.572,-582 575.572,-582 575.572,-582 246.781,-582 246.781,-582 240.781,-582 234.781,-576 234.781,-570 234.781,-570 234.781,-414 234.781,-414 234.781,-408 240.781,-402 246.781,-402"/>
<text text-anchor="middle" x="411.176" y="-569.2" font-family="Times,serif" font-size="11.00" fill="gray">Exception</text>
</g>
<!-- \\WellidUsageExamples\\AccountBalance -->
<g id="node1" class="node"><title>\\WellidUsageExamples\\AccountBalance</title>
<polygon fill="none" stroke="black" points="593.072,-204 482.072,-204 482.072,-168 593.072,-168 593.072,-204"/>
<text text-anchor="middle" x="537.572" y="-183.2" font-family="Courier,monospace" font-size="11.00">AccountBalance</text>
</g>
<!-- \\Wellid\\ValidatableInterface -->
<g id="node24" class="node"><title>\\Wellid\\ValidatableInterface</title>
<ellipse fill="none" stroke="black" cx="281.281" cy="-18" rx="111.581" ry="18"/>
<text text-anchor="middle" x="281.281" y="-14.3" font-family="Times,serif" font-size="14.00" fill="gray">\Wellid\ValidatableInterface</text>
</g>
<!-- \\WellidUsageExamples\\AccountBalance&#45;&gt;\\Wellid\\ValidatableInterface -->
<g id="edge1" class="edge"><title>\\WellidUsageExamples\\AccountBalance&#45;&gt;\\Wellid\\ValidatableInterface</title>
<path fill="none" stroke="black" stroke-dasharray="1,5" d="M523.355,-167.714C500.406,-137.356 450.143,-76.7607 393.072,-45 385.467,-40.7682 377.208,-37.1937 368.743,-34.1754"/>
<polygon fill="none" stroke="black" points="369.715,-30.8106 359.122,-30.9986 367.52,-37.4576 369.715,-30.8106"/>
</g>
<!-- \\Wellid\\Validator\\MIME -->
<g id="node2" class="node"><title>\\Wellid\\Validator\\MIME</title>
<polygon fill="none" stroke="black" points="564.572,-1228 510.572,-1228 510.572,-1192 564.572,-1192 564.572,-1228"/>
<text text-anchor="middle" x="537.572" y="-1207.2" font-family="Courier,monospace" font-size="11.00">MIME</text>
</g>
<!-- \\Wellid\\Validator\\ValidatorInterface -->
<g id="node15" class="node"><title>\\Wellid\\Validator\\ValidatorInterface</title>
<polygon fill="none" stroke="black" points="350.281,-1012 212.281,-1012 212.281,-976 350.281,-976 350.281,-1012"/>
<text text-anchor="middle" x="281.281" y="-991.2" font-family="Courier,monospace" font-size="11.00">ValidatorInterface</text>
</g>
<!-- \\Wellid\\Validator\\MIME&#45;&gt;\\Wellid\\Validator\\ValidatorInterface -->
<g id="edge2" class="edge"><title>\\Wellid\\Validator\\MIME&#45;&gt;\\Wellid\\Validator\\ValidatorInterface</title>
<path fill="none" stroke="black" stroke-dasharray="1,5" d="M510.452,-1203.18C496.302,-1198.76 478.931,-1192.11 465.072,-1183 395.422,-1137.21 332.133,-1060.58 301.567,-1020.41"/>
<polygon fill="none" stroke="black" points="304.186,-1018.07 295.377,-1012.18 298.592,-1022.28 304.186,-1018.07"/>
</g>
<!-- \\Wellid\\Validator\\Password -->
<g id="node3" class="node"><title>\\Wellid\\Validator\\Password</title>
<polygon fill="none" stroke="black" points="573.072,-1174 502.072,-1174 502.072,-1138 573.072,-1138 573.072,-1174"/>
<text text-anchor="middle" x="537.572" y="-1153.2" font-family="Courier,monospace" font-size="11.00">Password</text>
</g>
<!-- \\Wellid\\Validator\\Password&#45;&gt;\\Wellid\\Validator\\ValidatorInterface -->
<g id="edge4" class="edge"><title>\\Wellid\\Validator\\Password&#45;&gt;\\Wellid\\Validator\\ValidatorInterface</title>
<path fill="none" stroke="black" stroke-dasharray="1,5" d="M501.897,-1145.08C489.915,-1140.74 476.608,-1135.28 465.072,-1129 406.211,-1096.95 344.976,-1047.99 310.438,-1018.67"/>
<polygon fill="none" stroke="black" points="312.535,-1015.86 302.661,-1012.02 307.985,-1021.18 312.535,-1015.86"/>
</g>
<!-- \\Wellid\\Validator\\MinLength -->
<g id="node4" class="node"><title>\\Wellid\\Validator\\MinLength</title>
<polygon fill="none" stroke="black" points="576.072,-1120 499.072,-1120 499.072,-1084 576.072,-1084 576.072,-1120"/>
<text text-anchor="middle" x="537.572" y="-1099.2" font-family="Courier,monospace" font-size="11.00">MinLength</text>
</g>
<!-- \\Wellid\\Validator\\MinLength&#45;&gt;\\Wellid\\Validator\\ValidatorInterface -->
<g id="edge5" class="edge"><title>\\Wellid\\Validator\\MinLength&#45;&gt;\\Wellid\\Validator\\ValidatorInterface</title>
<path fill="none" stroke="black" stroke-dasharray="1,5" d="M498.938,-1088.24C487.969,-1084.11 475.998,-1079.48 465.072,-1075 419.08,-1056.14 367.345,-1033.04 330.684,-1016.34"/>
<polygon fill="none" stroke="black" points="331.782,-1012.99 321.231,-1012.02 328.874,-1019.36 331.782,-1012.99"/>
</g>
<!-- \\Wellid\\Validator\\Email -->
<g id="node5" class="node"><title>\\Wellid\\Validator\\Email</title>
<polygon fill="none" stroke="black" points="564.572,-1066 510.572,-1066 510.572,-1030 564.572,-1030 564.572,-1066"/>
<text text-anchor="middle" x="537.572" y="-1045.2" font-family="Courier,monospace" font-size="11.00">Email</text>
</g>
<!-- \\Wellid\\Validator\\Email&#45;&gt;\\Wellid\\Validator\\ValidatorInterface -->
<g id="edge7" class="edge"><title>\\Wellid\\Validator\\Email&#45;&gt;\\Wellid\\Validator\\ValidatorInterface</title>
<path fill="none" stroke="black" stroke-dasharray="1,5" d="M510.316,-1042.42C475.281,-1034.98 411.721,-1021.49 360.589,-1010.63"/>
<polygon fill="none" stroke="black" points="361.049,-1007.15 350.54,-1008.5 359.595,-1014 361.049,-1007.15"/>
</g>
<!-- \\Wellid\\Validator\\Min -->
<g id="node6" class="node"><title>\\Wellid\\Validator\\Min</title>
<polygon fill="none" stroke="black" points="564.572,-1012 510.572,-1012 510.572,-976 564.572,-976 564.572,-1012"/>
<text text-anchor="middle" x="537.572" y="-991.2" font-family="Courier,monospace" font-size="11.00">Min</text>
</g>
<!-- \\Wellid\\Validator\\Min&#45;&gt;\\Wellid\\Validator\\ValidatorInterface -->
<g id="edge8" class="edge"><title>\\Wellid\\Validator\\Min&#45;&gt;\\Wellid\\Validator\\ValidatorInterface</title>
<path fill="none" stroke="black" stroke-dasharray="1,5" d="M510.316,-994C475.281,-994 411.721,-994 360.589,-994"/>
<polygon fill="none" stroke="black" points="360.54,-990.5 350.54,-994 360.54,-997.5 360.54,-990.5"/>
</g>
<!-- \\Wellid\\Validator\\Max -->
<g id="node7" class="node"><title>\\Wellid\\Validator\\Max</title>
<polygon fill="none" stroke="black" points="564.572,-958 510.572,-958 510.572,-922 564.572,-922 564.572,-958"/>
<text text-anchor="middle" x="537.572" y="-937.2" font-family="Courier,monospace" font-size="11.00">Max</text>
</g>
<!-- \\Wellid\\Validator\\Max&#45;&gt;\\Wellid\\Validator\\ValidatorInterface -->
<g id="edge9" class="edge"><title>\\Wellid\\Validator\\Max&#45;&gt;\\Wellid\\Validator\\ValidatorInterface</title>
<path fill="none" stroke="black" stroke-dasharray="1,5" d="M510.316,-945.576C475.281,-953.015 411.721,-966.513 360.589,-977.371"/>
<polygon fill="none" stroke="black" points="359.595,-974.004 350.54,-979.505 361.049,-980.851 359.595,-974.004"/>
</g>
<!-- \\Wellid\\Validator\\Float -->
<g id="node8" class="node"><title>\\Wellid\\Validator\\Float</title>
<polygon fill="none" stroke="black" points="564.572,-904 510.572,-904 510.572,-868 564.572,-868 564.572,-904"/>
<text text-anchor="middle" x="537.572" y="-883.2" font-family="Courier,monospace" font-size="11.00">Float</text>
</g>
<!-- \\Wellid\\Validator\\Float&#45;&gt;\\Wellid\\Validator\\ValidatorInterface -->
<g id="edge10" class="edge"><title>\\Wellid\\Validator\\Float&#45;&gt;\\Wellid\\Validator\\ValidatorInterface</title>
<path fill="none" stroke="black" stroke-dasharray="1,5" d="M510.285,-895.525C496.712,-900.544 479.927,-906.909 465.072,-913 419.08,-931.856 367.345,-954.963 330.684,-971.664"/>
<polygon fill="none" stroke="black" points="328.874,-968.643 321.231,-975.98 331.782,-975.01 328.874,-968.643"/>
</g>
<!-- \\Wellid\\Validator\\Required -->
<g id="node9" class="node"><title>\\Wellid\\Validator\\Required</title>
<polygon fill="none" stroke="black" points="573.072,-850 502.072,-850 502.072,-814 573.072,-814 573.072,-850"/>
<text text-anchor="middle" x="537.572" y="-829.2" font-family="Courier,monospace" font-size="11.00">Required</text>
</g>
<!-- \\Wellid\\Validator\\Required&#45;&gt;\\Wellid\\Validator\\ValidatorInterface -->
<g id="edge11" class="edge"><title>\\Wellid\\Validator\\Required&#45;&gt;\\Wellid\\Validator\\ValidatorInterface</title>
<path fill="none" stroke="black" stroke-dasharray="1,5" d="M501.897,-842.922C489.915,-847.257 476.608,-852.718 465.072,-859 406.211,-891.049 344.976,-940.011 310.438,-969.327"/>
<polygon fill="none" stroke="black" points="307.985,-966.819 302.661,-975.98 312.535,-972.139 307.985,-966.819"/>
</g>
<!-- \\Wellid\\Validator\\Integer -->
<g id="node10" class="node"><title>\\Wellid\\Validator\\Integer</title>
<polygon fill="none" stroke="black" points="569.572,-796 505.572,-796 505.572,-760 569.572,-760 569.572,-796"/>
<text text-anchor="middle" x="537.572" y="-775.2" font-family="Courier,monospace" font-size="11.00">Integer</text>
</g>
<!-- \\Wellid\\Validator\\Integer&#45;&gt;\\Wellid\\Validator\\ValidatorInterface -->
<g id="edge14" class="edge"><title>\\Wellid\\Validator\\Integer&#45;&gt;\\Wellid\\Validator\\ValidatorInterface</title>
<path fill="none" stroke="black" stroke-dasharray="1,5" d="M505.231,-786.505C492.184,-790.869 477.268,-796.982 465.072,-805 395.422,-850.79 332.133,-927.416 301.567,-967.592"/>
<polygon fill="none" stroke="black" points="298.592,-965.725 295.377,-975.82 304.186,-969.932 298.592,-965.725"/>
</g>
<!-- \\Wellid\\Validator\\Date -->
<g id="node11" class="node"><title>\\Wellid\\Validator\\Date</title>
<polygon fill="none" stroke="black" points="564.572,-742 510.572,-742 510.572,-706 564.572,-706 564.572,-742"/>
<text text-anchor="middle" x="537.572" y="-721.2" font-family="Courier,monospace" font-size="11.00">Date</text>
</g>
<!-- \\Wellid\\Validator\\Date&#45;&gt;\\Wellid\\Validator\\ValidatorInterface -->
<g id="edge15" class="edge"><title>\\Wellid\\Validator\\Date&#45;&gt;\\Wellid\\Validator\\ValidatorInterface</title>
<path fill="none" stroke="black" stroke-dasharray="1,5" d="M510.331,-730.056C495.976,-734.272 478.447,-740.969 465.072,-751 384.3,-811.575 322.195,-917.264 295.945,-966.853"/>
<polygon fill="none" stroke="black" points="292.7,-965.507 291.179,-975.993 298.906,-968.744 292.7,-965.507"/>
</g>
<!-- \\Wellid\\Validator\\Filesize -->
<g id="node12" class="node"><title>\\Wellid\\Validator\\Filesize</title>
<polygon fill="none" stroke="black" points="573.072,-688 502.072,-688 502.072,-652 573.072,-652 573.072,-688"/>
<text text-anchor="middle" x="537.572" y="-667.2" font-family="Courier,monospace" font-size="11.00">Filesize</text>
</g>
<!-- \\Wellid\\Validator\\Filesize&#45;&gt;\\Wellid\\Validator\\ValidatorInterface -->
<g id="edge17" class="edge"><title>\\Wellid\\Validator\\Filesize&#45;&gt;\\Wellid\\Validator\\ValidatorInterface</title>
<path fill="none" stroke="black" stroke-dasharray="1,5" d="M501.775,-678.082C489.244,-682.23 475.611,-688.3 465.072,-697 373.012,-772.993 314.332,-908.098 292.221,-966.188"/>
<polygon fill="none" stroke="black" points="288.855,-965.196 288.635,-975.789 295.413,-967.646 288.855,-965.196"/>
</g>
<!-- \\Wellid\\Validator\\MaxLength -->
<g id="node13" class="node"><title>\\Wellid\\Validator\\MaxLength</title>
<polygon fill="none" stroke="black" points="576.072,-1336 499.072,-1336 499.072,-1300 576.072,-1300 576.072,-1336"/>
<text text-anchor="middle" x="537.572" y="-1315.2" font-family="Courier,monospace" font-size="11.00">MaxLength</text>
</g>
<!-- \\Wellid\\Validator\\MaxLength&#45;&gt;\\Wellid\\Validator\\ValidatorInterface -->
<g id="edge19" class="edge"><title>\\Wellid\\Validator\\MaxLength&#45;&gt;\\Wellid\\Validator\\ValidatorInterface</title>
<path fill="none" stroke="black" stroke-dasharray="1,5" d="M498.837,-1308.92C487.145,-1304.81 474.793,-1299.02 465.072,-1291 373.012,-1215.01 314.332,-1079.9 292.221,-1021.81"/>
<polygon fill="none" stroke="black" points="295.413,-1020.35 288.635,-1012.21 288.855,-1022.8 295.413,-1020.35"/>
</g>
<!-- \\Wellid\\Validator\\URL -->
<g id="node14" class="node"><title>\\Wellid\\Validator\\URL</title>
<polygon fill="none" stroke="black" points="564.572,-1282 510.572,-1282 510.572,-1246 564.572,-1246 564.572,-1282"/>
<text text-anchor="middle" x="537.572" y="-1261.2" font-family="Courier,monospace" font-size="11.00">URL</text>
</g>
<!-- \\Wellid\\Validator\\URL&#45;&gt;\\Wellid\\Validator\\ValidatorInterface -->
<g id="edge20" class="edge"><title>\\Wellid\\Validator\\URL&#45;&gt;\\Wellid\\Validator\\ValidatorInterface</title>
<path fill="none" stroke="black" stroke-dasharray="1,5" d="M510.331,-1257.94C495.976,-1253.73 478.447,-1247.03 465.072,-1237 384.3,-1176.43 322.195,-1070.74 295.945,-1021.15"/>
<polygon fill="none" stroke="black" points="298.906,-1019.26 291.179,-1012.01 292.7,-1022.49 298.906,-1019.26"/>
</g>
<!-- \\Wellid\\Validator\\ValidatorTrait -->
<g id="node16" class="node"><title>\\Wellid\\Validator\\ValidatorTrait</title>
<polygon fill="none" stroke="black" points="593.072,-634 482.072,-634 482.072,-598 593.072,-598 593.072,-634"/>
<text text-anchor="middle" x="537.572" y="-613.2" font-family="Courier,monospace" font-size="11.00">ValidatorTrait</text>
</g>
<!-- \\Wellid\\Exception\\Exception -->
<g id="node17" class="node"><title>\\Wellid\\Exception\\Exception</title>
<polygon fill="none" stroke="black" points="319.781,-500 242.781,-500 242.781,-464 319.781,-464 319.781,-500"/>
<text text-anchor="middle" x="281.281" y="-479.2" font-family="Courier,monospace" font-size="11.00">Exception</text>
</g>
<!-- \\Exception -->
<g id="node25" class="node"><title>\\Exception</title>
<ellipse fill="none" stroke="black" cx="48.7457" cy="-482" rx="48.9926" ry="18"/>
<text text-anchor="middle" x="48.7457" y="-478.3" font-family="Times,serif" font-size="14.00" fill="gray">\Exception</text>
</g>
<!-- \\Wellid\\Exception\\Exception&#45;&gt;\\Exception -->
<g id="edge3" class="edge"><title>\\Wellid\\Exception\\Exception&#45;&gt;\\Exception</title>
<path fill="none" stroke="black" d="M242.729,-482C206.189,-482 150.148,-482 107.853,-482"/>
<polygon fill="none" stroke="black" points="107.69,-478.5 97.69,-482 107.69,-485.5 107.69,-478.5"/>
</g>
<!-- \\Wellid\\Exception\\DataType -->
<g id="node18" class="node"><title>\\Wellid\\Exception\\DataType</title>
<polygon fill="none" stroke="black" points="573.072,-554 502.072,-554 502.072,-518 573.072,-518 573.072,-554"/>
<text text-anchor="middle" x="537.572" y="-533.2" font-family="Courier,monospace" font-size="11.00">DataType</text>
</g>
<!-- \\Wellid\\Exception\\DataType&#45;&gt;\\Wellid\\Exception\\Exception -->
<g id="edge6" class="edge"><title>\\Wellid\\Exception\\DataType&#45;&gt;\\Wellid\\Exception\\Exception</title>
<path fill="none" stroke="black" d="M502.012,-528.661C457.547,-519.219 380.085,-502.769 330.018,-492.137"/>
<polygon fill="none" stroke="black" points="330.589,-488.68 320.08,-490.027 329.135,-495.528 330.589,-488.68"/>
</g>
<!-- \\Wellid\\Exception\\DataFormat -->
<g id="node19" class="node"><title>\\Wellid\\Exception\\DataFormat</title>
<polygon fill="none" stroke="black" points="579.572,-500 495.572,-500 495.572,-464 579.572,-464 579.572,-500"/>
<text text-anchor="middle" x="537.572" y="-479.2" font-family="Courier,monospace" font-size="11.00">DataFormat</text>
</g>
<!-- \\Wellid\\Exception\\DataFormat&#45;&gt;\\Wellid\\Exception\\Exception -->
<g id="edge16" class="edge"><title>\\Wellid\\Exception\\DataFormat&#45;&gt;\\Wellid\\Exception\\Exception</title>
<path fill="none" stroke="black" d="M495.433,-482C450.253,-482 377.797,-482 330.116,-482"/>
<polygon fill="none" stroke="black" points="330.041,-478.5 320.041,-482 330.041,-485.5 330.041,-478.5"/>
</g>
<!-- \\Wellid\\Exception\\NotFound -->
<g id="node20" class="node"><title>\\Wellid\\Exception\\NotFound</title>
<polygon fill="none" stroke="black" points="573.072,-446 502.072,-446 502.072,-410 573.072,-410 573.072,-446"/>
<text text-anchor="middle" x="537.572" y="-425.2" font-family="Courier,monospace" font-size="11.00">NotFound</text>
</g>
<!-- \\Wellid\\Exception\\NotFound&#45;&gt;\\Wellid\\Exception\\Exception -->
<g id="edge18" class="edge"><title>\\Wellid\\Exception\\NotFound&#45;&gt;\\Wellid\\Exception\\Exception</title>
<path fill="none" stroke="black" d="M502.012,-435.339C457.547,-444.781 380.085,-461.231 330.018,-471.863"/>
<polygon fill="none" stroke="black" points="329.135,-468.472 320.08,-473.973 330.589,-475.32 329.135,-468.472"/>
</g>
<!-- \\Wellid\\ValidationResult -->
<g id="node21" class="node"><title>\\Wellid\\ValidationResult</title>
<polygon fill="none" stroke="black" points="600.072,-392 475.072,-392 475.072,-356 600.072,-356 600.072,-392"/>
<text text-anchor="middle" x="537.572" y="-371.2" font-family="Courier,monospace" font-size="11.00">ValidationResult</text>
</g>
<!-- \\Wellid\\ValidationResultSet -->
<g id="node22" class="node"><title>\\Wellid\\ValidationResultSet</title>
<polygon fill="none" stroke="black" points="610.072,-338 465.072,-338 465.072,-302 610.072,-302 610.072,-338"/>
<text text-anchor="middle" x="537.572" y="-317.2" font-family="Courier,monospace" font-size="11.00">ValidationResultSet</text>
</g>
<!-- \\Iterator -->
<g id="node26" class="node"><title>\\Iterator</title>
<ellipse fill="none" stroke="black" cx="281.281" cy="-72" rx="38.9931" ry="18"/>
<text text-anchor="middle" x="281.281" y="-68.3" font-family="Times,serif" font-size="14.00" fill="gray">\Iterator</text>
</g>
<!-- \\Wellid\\ValidationResultSet&#45;&gt;\\Iterator -->
<g id="edge12" class="edge"><title>\\Wellid\\ValidationResultSet&#45;&gt;\\Iterator</title>
<path fill="none" stroke="black" stroke-dasharray="1,5" d="M476.378,-301.956C472.274,-299.356 468.44,-296.387 465.072,-293 400.225,-227.783 461.774,-160.141 393.072,-99 375.964,-83.775 351.695,-76.7964 330.23,-73.7204"/>
<polygon fill="none" stroke="black" points="330.626,-70.2429 320.282,-72.5353 329.798,-77.1938 330.626,-70.2429"/>
</g>
<!-- \\Countable -->
<g id="node27" class="node"><title>\\Countable</title>
<ellipse fill="none" stroke="black" cx="281.281" cy="-126" rx="49.2915" ry="18"/>
<text text-anchor="middle" x="281.281" y="-122.3" font-family="Times,serif" font-size="14.00" fill="gray">\Countable</text>
</g>
<!-- \\Wellid\\ValidationResultSet&#45;&gt;\\Countable -->
<g id="edge13" class="edge"><title>\\Wellid\\ValidationResultSet&#45;&gt;\\Countable</title>
<path fill="none" stroke="black" stroke-dasharray="1,5" d="M482.043,-301.921C476.159,-299.238 470.386,-296.263 465.072,-293 399.176,-252.538 335.629,-186.477 303.669,-150.774"/>
<polygon fill="none" stroke="black" points="306.225,-148.381 296.973,-143.219 300.987,-153.024 306.225,-148.381"/>
</g>
<!-- \\Wellid\\SanitorBridgeTrait -->
<g id="node23" class="node"><title>\\Wellid\\SanitorBridgeTrait</title>
<polygon fill="none" stroke="black" points="606.572,-284 468.572,-284 468.572,-248 606.572,-248 606.572,-284"/>
<text text-anchor="middle" x="537.572" y="-263.2" font-family="Courier,monospace" font-size="11.00">SanitorBridgeTrait</text>
</g>
</g>
</svg>
