<?xml version="1.0" encoding="UTF-8" standalone="no"?>
<!DOCTYPE svg PUBLIC "-//W3C//DTD SVG 1.1//EN"
 "http://www.w3.org/Graphics/SVG/1.1/DTD/svg11.dtd">
<!-- Generated by graphviz version 2.38.0 (20140413.2041)
 -->
<!-- Title: G Pages: 1 -->
<svg width="1125pt" height="1778pt"
 viewBox="0.00 0.00 1124.66 1778.46" xmlns="http://www.w3.org/2000/svg" xmlns:xlink="http://www.w3.org/1999/xlink">
<g id="graph0" class="graph" transform="scale(1 1) rotate(0) translate(4 1774.46)">
<title>G</title>
<polygon fill="white" stroke="none" points="-4,4 -4,-1774.46 1120.66,-1774.46 1120.66,4 -4,4"/>
<g id="clust1" class="cluster"><title>cluster_Global</title>
<path fill="none" stroke="gray" d="M359.517,-206.458C359.517,-206.458 1096.66,-206.458 1096.66,-206.458 1102.66,-206.458 1108.66,-212.458 1108.66,-218.458 1108.66,-218.458 1108.66,-1750.46 1108.66,-1750.46 1108.66,-1756.46 1102.66,-1762.46 1096.66,-1762.46 1096.66,-1762.46 359.517,-1762.46 359.517,-1762.46 353.517,-1762.46 347.517,-1756.46 347.517,-1750.46 347.517,-1750.46 347.517,-218.458 347.517,-218.458 347.517,-212.458 353.517,-206.458 359.517,-206.458"/>
<text text-anchor="middle" x="728.087" y="-1749.66" font-family="Times,serif" font-size="11.00" fill="gray">Global</text>
</g>
<g id="clust2" class="cluster"><title>cluster_\Wellid</title>
<path fill="none" stroke="gray" d="M367.517,-214.458C367.517,-214.458 831.657,-214.458 831.657,-214.458 837.657,-214.458 843.657,-220.458 843.657,-226.458 843.657,-226.458 843.657,-1722.46 843.657,-1722.46 843.657,-1728.46 837.657,-1734.46 831.657,-1734.46 831.657,-1734.46 367.517,-1734.46 367.517,-1734.46 361.517,-1734.46 355.517,-1728.46 355.517,-1722.46 355.517,-1722.46 355.517,-226.458 355.517,-226.458 355.517,-220.458 361.517,-214.458 367.517,-214.458"/>
<text text-anchor="middle" x="599.587" y="-1721.66" font-family="Times,serif" font-size="11.00" fill="gray">Wellid</text>
</g>
<g id="clust3" class="cluster"><title>cluster_\Wellid\Validator</title>
<path fill="none" stroke="gray" d="M375.517,-484.458C375.517,-484.458 781.157,-484.458 781.157,-484.458 787.157,-484.458 793.157,-490.458 793.157,-496.458 793.157,-496.458 793.157,-1354.46 793.157,-1354.46 793.157,-1360.46 787.157,-1366.46 781.157,-1366.46 781.157,-1366.46 375.517,-1366.46 375.517,-1366.46 369.517,-1366.46 363.517,-1360.46 363.517,-1354.46 363.517,-1354.46 363.517,-496.458 363.517,-496.458 363.517,-490.458 369.517,-484.458 375.517,-484.458"/>
<text text-anchor="middle" x="578.337" y="-1353.66" font-family="Times,serif" font-size="11.00" fill="gray">Validator</text>
</g>
<g id="clust4" class="cluster"><title>cluster_\Wellid\Exception</title>
<path fill="none" stroke="gray" d="M406.017,-1374.46C406.017,-1374.46 767.657,-1374.46 767.657,-1374.46 773.657,-1374.46 779.657,-1380.46 779.657,-1386.46 779.657,-1386.46 779.657,-1542.46 779.657,-1542.46 779.657,-1548.46 773.657,-1554.46 767.657,-1554.46 767.657,-1554.46 406.017,-1554.46 406.017,-1554.46 400.017,-1554.46 394.017,-1548.46 394.017,-1542.46 394.017,-1542.46 394.017,-1386.46 394.017,-1386.46 394.017,-1380.46 400.017,-1374.46 406.017,-1374.46"/>
<text text-anchor="middle" x="586.837" y="-1541.66" font-family="Times,serif" font-size="11.00" fill="gray">Exception</text>
</g>
<g id="clust5" class="cluster"><title>cluster_\WellidUsageExamples</title>
<path fill="none" stroke="gray" d="M911.657,-1554.46C911.657,-1554.46 1088.66,-1554.46 1088.66,-1554.46 1094.66,-1554.46 1100.66,-1560.46 1100.66,-1566.46 1100.66,-1566.46 1100.66,-1722.46 1100.66,-1722.46 1100.66,-1728.46 1094.66,-1734.46 1088.66,-1734.46 1088.66,-1734.46 911.657,-1734.46 911.657,-1734.46 905.657,-1734.46 899.657,-1728.46 899.657,-1722.46 899.657,-1722.46 899.657,-1566.46 899.657,-1566.46 899.657,-1560.46 905.657,-1554.46 911.657,-1554.46"/>
<text text-anchor="middle" x="1000.16" y="-1721.66" font-family="Times,serif" font-size="11.00" fill="gray">WellidUsageExamples</text>
</g>
<!-- \\Wellid\\Validator\\Min -->
<g id="node1" class="node"><title>\\Wellid\\Validator\\Min</title>
<polygon fill="none" stroke="black" points="756.657,-1338.46 702.657,-1338.46 702.657,-1302.46 756.657,-1302.46 756.657,-1338.46"/>
<text text-anchor="middle" x="729.657" y="-1317.66" font-family="Courier,monospace" font-size="11.00">Min</text>
</g>
<!-- \\Wellid\\Validator\\ValidatorInterface -->
<g id="node16" class="node"><title>\\Wellid\\Validator\\ValidatorInterface</title>
<polygon fill="none" stroke="black" points="509.517,-960.458 371.517,-960.458 371.517,-924.458 509.517,-924.458 509.517,-960.458"/>
<text text-anchor="middle" x="440.517" y="-939.658" font-family="Courier,monospace" font-size="11.00">ValidatorInterface</text>
</g>
<!-- \\Wellid\\Validator\\Min&#45;&gt;\\Wellid\\Validator\\ValidatorInterface -->
<g id="edge1" class="edge"><title>\\Wellid\\Validator\\Min&#45;&gt;\\Wellid\\Validator\\ValidatorInterface</title>
<path fill="none" stroke="black" stroke-dasharray="1,5" d="M702.288,-1319.57C679.299,-1317.53 646.196,-1311.38 623.657,-1293.46 514.768,-1206.85 464.135,-1037.4 447.763,-970.544"/>
<polygon fill="none" stroke="black" points="451.146,-969.642 445.425,-960.724 444.336,-971.262 451.146,-969.642"/>
</g>
<!-- \\Wellid\\Validator\\MaxLength -->
<g id="node2" class="node"><title>\\Wellid\\Validator\\MaxLength</title>
<polygon fill="none" stroke="black" points="768.157,-1284.46 691.157,-1284.46 691.157,-1248.46 768.157,-1248.46 768.157,-1284.46"/>
<text text-anchor="middle" x="729.657" y="-1263.66" font-family="Courier,monospace" font-size="11.00">MaxLength</text>
</g>
<!-- \\Wellid\\Validator\\MaxLength&#45;&gt;\\Wellid\\Validator\\ValidatorInterface -->
<g id="edge5" class="edge"><title>\\Wellid\\Validator\\MaxLength&#45;&gt;\\Wellid\\Validator\\ValidatorInterface</title>
<path fill="none" stroke="black" stroke-dasharray="1,5" d="M690.692,-1263.69C669.287,-1260.52 643.037,-1253.77 623.657,-1239.46 527.272,-1168.27 470.989,-1029.4 450.462,-970.234"/>
<polygon fill="none" stroke="black" points="453.677,-968.816 447.15,-960.47 447.047,-971.064 453.677,-968.816"/>
</g>
<!-- \\Wellid\\Validator\\Date -->
<g id="node3" class="node"><title>\\Wellid\\Validator\\Date</title>
<polygon fill="none" stroke="black" points="756.657,-1230.46 702.657,-1230.46 702.657,-1194.46 756.657,-1194.46 756.657,-1230.46"/>
<text text-anchor="middle" x="729.657" y="-1209.66" font-family="Courier,monospace" font-size="11.00">Date</text>
</g>
<!-- \\Wellid\\Validator\\Date&#45;&gt;\\Wellid\\Validator\\ValidatorInterface -->
<g id="edge7" class="edge"><title>\\Wellid\\Validator\\Date&#45;&gt;\\Wellid\\Validator\\ValidatorInterface</title>
<path fill="none" stroke="black" stroke-dasharray="1,5" d="M702.523,-1210.59C679.994,-1207.9 647.436,-1201.37 623.657,-1185.46 539.471,-1129.13 479.062,-1020.49 454.155,-969.779"/>
<polygon fill="none" stroke="black" points="457.284,-968.209 449.785,-960.725 450.98,-971.252 457.284,-968.209"/>
</g>
<!-- \\Wellid\\Validator\\Integer -->
<g id="node4" class="node"><title>\\Wellid\\Validator\\Integer</title>
<polygon fill="none" stroke="black" points="761.657,-1176.46 697.657,-1176.46 697.657,-1140.46 761.657,-1140.46 761.657,-1176.46"/>
<text text-anchor="middle" x="729.657" y="-1155.66" font-family="Courier,monospace" font-size="11.00">Integer</text>
</g>
<!-- \\Wellid\\Validator\\Integer&#45;&gt;\\Wellid\\Validator\\ValidatorInterface -->
<g id="edge9" class="edge"><title>\\Wellid\\Validator\\Integer&#45;&gt;\\Wellid\\Validator\\ValidatorInterface</title>
<path fill="none" stroke="black" stroke-dasharray="1,5" d="M697.541,-1155.03C675.691,-1151.56 646.423,-1144.73 623.657,-1131.46 551.251,-1089.25 488.873,-1010.14 459.485,-968.933"/>
<polygon fill="none" stroke="black" points="462.34,-966.908 453.723,-960.743 456.614,-970.936 462.34,-966.908"/>
</g>
<!-- \\Wellid\\Validator\\Password -->
<g id="node5" class="node"><title>\\Wellid\\Validator\\Password</title>
<polygon fill="none" stroke="black" points="765.157,-1122.46 694.157,-1122.46 694.157,-1086.46 765.157,-1086.46 765.157,-1122.46"/>
<text text-anchor="middle" x="729.657" y="-1101.66" font-family="Courier,monospace" font-size="11.00">Password</text>
</g>
<!-- \\Wellid\\Validator\\Password&#45;&gt;\\Wellid\\Validator\\ValidatorInterface -->
<g id="edge10" class="edge"><title>\\Wellid\\Validator\\Password&#45;&gt;\\Wellid\\Validator\\ValidatorInterface</title>
<path fill="none" stroke="black" stroke-dasharray="1,5" d="M693.923,-1099.02C672.889,-1094.89 645.916,-1088.07 623.657,-1077.46 562.803,-1048.45 501.851,-997.834 468.169,-967.503"/>
<polygon fill="none" stroke="black" points="470.359,-964.764 460.608,-960.621 465.647,-969.941 470.359,-964.764"/>
</g>
<!-- \\Wellid\\Validator\\Filesize -->
<g id="node6" class="node"><title>\\Wellid\\Validator\\Filesize</title>
<polygon fill="none" stroke="black" points="765.157,-1068.46 694.157,-1068.46 694.157,-1032.46 765.157,-1032.46 765.157,-1068.46"/>
<text text-anchor="middle" x="729.657" y="-1047.66" font-family="Courier,monospace" font-size="11.00">Filesize</text>
</g>
<!-- \\Wellid\\Validator\\Filesize&#45;&gt;\\Wellid\\Validator\\ValidatorInterface -->
<g id="edge12" class="edge"><title>\\Wellid\\Validator\\Filesize&#45;&gt;\\Wellid\\Validator\\ValidatorInterface</title>
<path fill="none" stroke="black" stroke-dasharray="1,5" d="M693.703,-1043.01C673.07,-1038.24 646.588,-1031.44 623.657,-1023.46 575.805,-1006.8 523.109,-982.697 486.764,-965.118"/>
<polygon fill="none" stroke="black" points="487.95,-961.803 477.427,-960.572 484.885,-968.097 487.95,-961.803"/>
</g>
<!-- \\Wellid\\Validator\\MIME -->
<g id="node7" class="node"><title>\\Wellid\\Validator\\MIME</title>
<polygon fill="none" stroke="black" points="756.657,-1014.46 702.657,-1014.46 702.657,-978.458 756.657,-978.458 756.657,-1014.46"/>
<text text-anchor="middle" x="729.657" y="-993.658" font-family="Courier,monospace" font-size="11.00">MIME</text>
</g>
<!-- \\Wellid\\Validator\\MIME&#45;&gt;\\Wellid\\Validator\\ValidatorInterface -->
<g id="edge13" class="edge"><title>\\Wellid\\Validator\\MIME&#45;&gt;\\Wellid\\Validator\\ValidatorInterface</title>
<path fill="none" stroke="black" stroke-dasharray="1,5" d="M702.414,-991.523C661.432,-983.815 580.627,-968.619 519.748,-957.17"/>
<polygon fill="none" stroke="black" points="520.25,-953.703 509.776,-955.295 518.956,-960.583 520.25,-953.703"/>
</g>
<!-- \\Wellid\\Validator\\Email -->
<g id="node8" class="node"><title>\\Wellid\\Validator\\Email</title>
<polygon fill="none" stroke="black" points="756.657,-960.458 702.657,-960.458 702.657,-924.458 756.657,-924.458 756.657,-960.458"/>
<text text-anchor="middle" x="729.657" y="-939.658" font-family="Courier,monospace" font-size="11.00">Email</text>
</g>
<!-- \\Wellid\\Validator\\Email&#45;&gt;\\Wellid\\Validator\\ValidatorInterface -->
<g id="edge16" class="edge"><title>\\Wellid\\Validator\\Email&#45;&gt;\\Wellid\\Validator\\ValidatorInterface</title>
<path fill="none" stroke="black" stroke-dasharray="1,5" d="M702.414,-942.458C661.516,-942.458 580.96,-942.458 520.124,-942.458"/>
<polygon fill="none" stroke="black" points="519.776,-938.958 509.776,-942.458 519.776,-945.958 519.776,-938.958"/>
</g>
<!-- \\Wellid\\Validator\\URL -->
<g id="node9" class="node"><title>\\Wellid\\Validator\\URL</title>
<polygon fill="none" stroke="black" points="756.657,-906.458 702.657,-906.458 702.657,-870.458 756.657,-870.458 756.657,-906.458"/>
<text text-anchor="middle" x="729.657" y="-885.658" font-family="Courier,monospace" font-size="11.00">URL</text>
</g>
<!-- \\Wellid\\Validator\\URL&#45;&gt;\\Wellid\\Validator\\ValidatorInterface -->
<g id="edge18" class="edge"><title>\\Wellid\\Validator\\URL&#45;&gt;\\Wellid\\Validator\\ValidatorInterface</title>
<path fill="none" stroke="black" stroke-dasharray="1,5" d="M702.414,-893.393C661.432,-901.1 580.627,-916.297 519.748,-927.746"/>
<polygon fill="none" stroke="black" points="518.956,-924.333 509.776,-929.621 520.25,-931.213 518.956,-924.333"/>
</g>
<!-- \\Wellid\\Validator\\IPAddress -->
<g id="node10" class="node"><title>\\Wellid\\Validator\\IPAddress</title>
<polygon fill="none" stroke="black" points="768.157,-852.458 691.157,-852.458 691.157,-816.458 768.157,-816.458 768.157,-852.458"/>
<text text-anchor="middle" x="729.657" y="-831.658" font-family="Courier,monospace" font-size="11.00">IPAddress</text>
</g>
<!-- \\Wellid\\Validator\\IPAddress&#45;&gt;\\Wellid\\Validator\\ValidatorInterface -->
<g id="edge19" class="edge"><title>\\Wellid\\Validator\\IPAddress&#45;&gt;\\Wellid\\Validator\\ValidatorInterface</title>
<path fill="none" stroke="black" stroke-dasharray="1,5" d="M690.787,-842.584C670.615,-847.315 645.521,-853.845 623.657,-861.458 575.805,-878.12 523.109,-902.219 486.764,-919.798"/>
<polygon fill="none" stroke="black" points="484.885,-916.819 477.427,-924.344 487.95,-923.113 484.885,-916.819"/>
</g>
<!-- \\Wellid\\Validator\\Boolean -->
<g id="node11" class="node"><title>\\Wellid\\Validator\\Boolean</title>
<polygon fill="none" stroke="black" points="761.657,-798.458 697.657,-798.458 697.657,-762.458 761.657,-762.458 761.657,-798.458"/>
<text text-anchor="middle" x="729.657" y="-777.658" font-family="Courier,monospace" font-size="11.00">Boolean</text>
</g>
<!-- \\Wellid\\Validator\\Boolean&#45;&gt;\\Wellid\\Validator\\ValidatorInterface -->
<g id="edge20" class="edge"><title>\\Wellid\\Validator\\Boolean&#45;&gt;\\Wellid\\Validator\\ValidatorInterface</title>
<path fill="none" stroke="black" stroke-dasharray="1,5" d="M697.243,-785.256C675.785,-789.31 647.105,-796.283 623.657,-807.458 562.803,-836.462 501.851,-887.082 468.169,-917.413"/>
<polygon fill="none" stroke="black" points="465.647,-914.975 460.608,-924.295 470.359,-920.152 465.647,-914.975"/>
</g>
<!-- \\Wellid\\Validator\\MacAddress -->
<g id="node12" class="node"><title>\\Wellid\\Validator\\MacAddress</title>
<polygon fill="none" stroke="black" points="771.657,-744.458 687.657,-744.458 687.657,-708.458 771.657,-708.458 771.657,-744.458"/>
<text text-anchor="middle" x="729.657" y="-723.658" font-family="Courier,monospace" font-size="11.00">MacAddress</text>
</g>
<!-- \\Wellid\\Validator\\MacAddress&#45;&gt;\\Wellid\\Validator\\ValidatorInterface -->
<g id="edge21" class="edge"><title>\\Wellid\\Validator\\MacAddress&#45;&gt;\\Wellid\\Validator\\ValidatorInterface</title>
<path fill="none" stroke="black" stroke-dasharray="1,5" d="M687.509,-731.639C667.259,-735.495 643.089,-742.13 623.657,-753.458 551.251,-795.667 488.873,-874.778 459.485,-915.983"/>
<polygon fill="none" stroke="black" points="456.614,-913.98 453.723,-924.173 462.34,-918.008 456.614,-913.98"/>
</g>
<!-- \\Wellid\\Validator\\Max -->
<g id="node13" class="node"><title>\\Wellid\\Validator\\Max</title>
<polygon fill="none" stroke="black" points="756.657,-690.458 702.657,-690.458 702.657,-654.458 756.657,-654.458 756.657,-690.458"/>
<text text-anchor="middle" x="729.657" y="-669.658" font-family="Courier,monospace" font-size="11.00">Max</text>
</g>
<!-- \\Wellid\\Validator\\Max&#45;&gt;\\Wellid\\Validator\\ValidatorInterface -->
<g id="edge22" class="edge"><title>\\Wellid\\Validator\\Max&#45;&gt;\\Wellid\\Validator\\ValidatorInterface</title>
<path fill="none" stroke="black" stroke-dasharray="1,5" d="M702.523,-674.329C679.994,-677.014 647.436,-683.549 623.657,-699.458 539.471,-755.781 479.062,-864.423 454.155,-915.137"/>
<polygon fill="none" stroke="black" points="450.98,-913.664 449.785,-924.191 457.284,-916.707 450.98,-913.664"/>
</g>
<!-- \\Wellid\\Validator\\MinLength -->
<g id="node14" class="node"><title>\\Wellid\\Validator\\MinLength</title>
<polygon fill="none" stroke="black" points="768.157,-636.458 691.157,-636.458 691.157,-600.458 768.157,-600.458 768.157,-636.458"/>
<text text-anchor="middle" x="729.657" y="-615.658" font-family="Courier,monospace" font-size="11.00">MinLength</text>
</g>
<!-- \\Wellid\\Validator\\MinLength&#45;&gt;\\Wellid\\Validator\\ValidatorInterface -->
<g id="edge25" class="edge"><title>\\Wellid\\Validator\\MinLength&#45;&gt;\\Wellid\\Validator\\ValidatorInterface</title>
<path fill="none" stroke="black" stroke-dasharray="1,5" d="M690.692,-621.222C669.287,-624.394 643.037,-631.144 623.657,-645.458 527.272,-716.651 470.989,-855.515 450.462,-914.682"/>
<polygon fill="none" stroke="black" points="447.047,-913.852 447.15,-924.446 453.677,-916.1 447.047,-913.852"/>
</g>
<!-- \\Wellid\\Validator\\Float -->
<g id="node15" class="node"><title>\\Wellid\\Validator\\Float</title>
<polygon fill="none" stroke="black" points="756.657,-582.458 702.657,-582.458 702.657,-546.458 756.657,-546.458 756.657,-582.458"/>
<text text-anchor="middle" x="729.657" y="-561.658" font-family="Courier,monospace" font-size="11.00">Float</text>
</g>
<!-- \\Wellid\\Validator\\Float&#45;&gt;\\Wellid\\Validator\\ValidatorInterface -->
<g id="edge26" class="edge"><title>\\Wellid\\Validator\\Float&#45;&gt;\\Wellid\\Validator\\ValidatorInterface</title>
<path fill="none" stroke="black" stroke-dasharray="1,5" d="M702.288,-565.347C679.299,-567.389 646.196,-573.532 623.657,-591.458 514.768,-678.065 464.135,-847.516 447.763,-914.372"/>
<polygon fill="none" stroke="black" points="444.336,-913.653 445.425,-924.192 451.146,-915.274 444.336,-913.653"/>
</g>
<!-- \\Wellid\\Validator\\ValidatorTrait -->
<g id="node17" class="node"><title>\\Wellid\\Validator\\ValidatorTrait</title>
<polygon fill="none" stroke="black" points="785.157,-528.458 674.157,-528.458 674.157,-492.458 785.157,-492.458 785.157,-528.458"/>
<text text-anchor="middle" x="729.657" y="-507.658" font-family="Courier,monospace" font-size="11.00">ValidatorTrait</text>
</g>
<!-- \\Wellid\\Exception\\Exception -->
<g id="node18" class="node"><title>\\Wellid\\Exception\\Exception</title>
<polygon fill="none" stroke="black" points="479.017,-1472.46 402.017,-1472.46 402.017,-1436.46 479.017,-1436.46 479.017,-1472.46"/>
<text text-anchor="middle" x="440.517" y="-1451.66" font-family="Courier,monospace" font-size="11.00">Exception</text>
</g>
<!-- \\Exception -->
<g id="node34" class="node"><title>\\Exception</title>
<ellipse fill="none" stroke="black" cx="128.689" cy="-1454.46" rx="48.9926" ry="18"/>
<text text-anchor="middle" x="128.689" y="-1450.76" font-family="Times,serif" font-size="14.00" fill="gray">\Exception</text>
</g>
<!-- \\Wellid\\Exception\\Exception&#45;&gt;\\Exception -->
<g id="edge2" class="edge"><title>\\Wellid\\Exception\\Exception&#45;&gt;\\Exception</title>
<path fill="none" stroke="black" d="M401.836,-1454.46C348.445,-1454.46 250.312,-1454.46 187.622,-1454.46"/>
<polygon fill="none" stroke="black" points="187.496,-1450.96 177.496,-1454.46 187.496,-1457.96 187.496,-1450.96"/>
</g>
<!-- \\Wellid\\Exception\\DataType -->
<g id="node19" class="node"><title>\\Wellid\\Exception\\DataType</title>
<polygon fill="none" stroke="black" points="765.157,-1472.46 694.157,-1472.46 694.157,-1436.46 765.157,-1436.46 765.157,-1472.46"/>
<text text-anchor="middle" x="729.657" y="-1451.66" font-family="Courier,monospace" font-size="11.00">DataType</text>
</g>
<!-- \\Wellid\\Exception\\DataType&#45;&gt;\\Wellid\\Exception\\Exception -->
<g id="edge4" class="edge"><title>\\Wellid\\Exception\\DataType&#45;&gt;\\Wellid\\Exception\\Exception</title>
<path fill="none" stroke="black" d="M694.022,-1454.46C643.049,-1454.46 547.633,-1454.46 489.808,-1454.46"/>
<polygon fill="none" stroke="black" points="489.468,-1450.96 479.468,-1454.46 489.468,-1457.96 489.468,-1450.96"/>
</g>
<!-- \\Wellid\\Exception\\NotFound -->
<g id="node20" class="node"><title>\\Wellid\\Exception\\NotFound</title>
<polygon fill="none" stroke="black" points="765.157,-1418.46 694.157,-1418.46 694.157,-1382.46 765.157,-1382.46 765.157,-1418.46"/>
<text text-anchor="middle" x="729.657" y="-1397.66" font-family="Courier,monospace" font-size="11.00">NotFound</text>
</g>
<!-- \\Wellid\\Exception\\NotFound&#45;&gt;\\Wellid\\Exception\\Exception -->
<g id="edge11" class="edge"><title>\\Wellid\\Exception\\NotFound&#45;&gt;\\Wellid\\Exception\\Exception</title>
<path fill="none" stroke="black" d="M694.022,-1406.97C642.943,-1416.58 547.237,-1434.58 489.449,-1445.44"/>
<polygon fill="none" stroke="black" points="488.649,-1442.03 479.468,-1447.32 489.942,-1448.91 488.649,-1442.03"/>
</g>
<!-- \\Wellid\\Exception\\DataFormat -->
<g id="node21" class="node"><title>\\Wellid\\Exception\\DataFormat</title>
<polygon fill="none" stroke="black" points="771.657,-1526.46 687.657,-1526.46 687.657,-1490.46 771.657,-1490.46 771.657,-1526.46"/>
<text text-anchor="middle" x="729.657" y="-1505.66" font-family="Courier,monospace" font-size="11.00">DataFormat</text>
</g>
<!-- \\Wellid\\Exception\\DataFormat&#45;&gt;\\Wellid\\Exception\\Exception -->
<g id="edge17" class="edge"><title>\\Wellid\\Exception\\DataFormat&#45;&gt;\\Wellid\\Exception\\Exception</title>
<path fill="none" stroke="black" d="M687.517,-1500.72C635.108,-1490.86 544.702,-1473.86 489.297,-1463.44"/>
<polygon fill="none" stroke="black" points="489.851,-1459.99 479.377,-1461.58 488.557,-1466.87 489.851,-1459.99"/>
</g>
<!-- \\Wellid\\ValidationResult -->
<g id="node22" class="node"><title>\\Wellid\\ValidationResult</title>
<polygon fill="none" stroke="black" points="792.157,-1598.46 667.157,-1598.46 667.157,-1562.46 792.157,-1562.46 792.157,-1598.46"/>
<text text-anchor="middle" x="729.657" y="-1577.66" font-family="Courier,monospace" font-size="11.00">ValidationResult</text>
</g>
<!-- \\Wellid\\ValidatorHolder -->
<g id="node23" class="node"><title>\\Wellid\\ValidatorHolder</title>
<polygon fill="none" stroke="black" points="788.657,-1706.46 670.657,-1706.46 670.657,-1670.46 788.657,-1670.46 788.657,-1706.46"/>
<text text-anchor="middle" x="729.657" y="-1685.66" font-family="Courier,monospace" font-size="11.00">ValidatorHolder</text>
</g>
<!-- \\Wellid\\ValidatorHolderInterface -->
<g id="node35" class="node"><title>\\Wellid\\ValidatorHolderInterface</title>
<ellipse fill="none" stroke="black" cx="128.689" cy="-1661.46" rx="128.877" ry="18"/>
<text text-anchor="middle" x="128.689" y="-1657.76" font-family="Times,serif" font-size="14.00" fill="gray">\Wellid\ValidatorHolderInterface</text>
</g>
<!-- \\Wellid\\ValidatorHolder&#45;&gt;\\Wellid\\ValidatorHolderInterface -->
<g id="edge8" class="edge"><title>\\Wellid\\ValidatorHolder&#45;&gt;\\Wellid\\ValidatorHolderInterface</title>
<path fill="none" stroke="black" stroke-dasharray="1,5" d="M670.409,-1685.83C576.454,-1681.6 389.11,-1673.15 261.573,-1667.4"/>
<polygon fill="none" stroke="black" points="261.494,-1663.9 251.346,-1666.94 261.178,-1670.89 261.494,-1663.9"/>
</g>
<!-- \\Wellid\\ValidationResultSet -->
<g id="node24" class="node"><title>\\Wellid\\ValidationResultSet</title>
<polygon fill="none" stroke="black" points="802.157,-474.458 657.157,-474.458 657.157,-438.458 802.157,-438.458 802.157,-474.458"/>
<text text-anchor="middle" x="729.657" y="-453.658" font-family="Courier,monospace" font-size="11.00">ValidationResultSet</text>
</g>
<!-- \\Iterator -->
<g id="node36" class="node"><title>\\Iterator</title>
<ellipse fill="none" stroke="black" cx="440.517" cy="-180.458" rx="38.9931" ry="18"/>
<text text-anchor="middle" x="440.517" y="-176.758" font-family="Times,serif" font-size="14.00" fill="gray">\Iterator</text>
</g>
<!-- \\Wellid\\ValidationResultSet&#45;&gt;\\Iterator -->
<g id="edge14" class="edge"><title>\\Wellid\\ValidationResultSet&#45;&gt;\\Iterator</title>
<path fill="none" stroke="black" stroke-dasharray="1,5" d="M656.893,-445.079C645.179,-441.28 633.63,-436.215 623.657,-429.458 537.844,-371.319 477.684,-258.782 453.433,-207.319"/>
<polygon fill="none" stroke="black" points="456.571,-205.766 449.194,-198.161 450.218,-208.706 456.571,-205.766"/>
</g>
<!-- \\Countable -->
<g id="node37" class="node"><title>\\Countable</title>
<ellipse fill="none" stroke="black" cx="440.517" cy="-126.458" rx="49.2915" ry="18"/>
<text text-anchor="middle" x="440.517" y="-122.758" font-family="Times,serif" font-size="14.00" fill="gray">\Countable</text>
</g>
<!-- \\Wellid\\ValidationResultSet&#45;&gt;\\Countable -->
<g id="edge15" class="edge"><title>\\Wellid\\ValidationResultSet&#45;&gt;\\Countable</title>
<path fill="none" stroke="black" stroke-dasharray="1,5" d="M657.155,-448.96C644.725,-444.812 632.857,-438.625 623.657,-429.458 533.86,-339.973 641.959,-242.434 551.657,-153.458 537.928,-139.929 518.59,-132.8 499.943,-129.153"/>
<polygon fill="none" stroke="black" points="500.429,-125.686 489.992,-127.507 499.287,-132.592 500.429,-125.686"/>
</g>
<!-- \\Wellid\\CacheableValidatableInterface -->
<g id="node25" class="node"><title>\\Wellid\\CacheableValidatableInterface</title>
<polygon fill="none" stroke="black" points="835.657,-1652.46 623.657,-1652.46 623.657,-1616.46 835.657,-1616.46 835.657,-1652.46"/>
<text text-anchor="middle" x="729.657" y="-1631.66" font-family="Courier,monospace" font-size="11.00">CacheableValidatableInterface</text>
</g>
<!-- \\Wellid\\ValidatableInterface -->
<g id="node27" class="node"><title>\\Wellid\\ValidatableInterface</title>
<polygon fill="none" stroke="black" points="516.517,-1654.46 364.517,-1654.46 364.517,-1618.46 516.517,-1618.46 516.517,-1654.46"/>
<text text-anchor="middle" x="440.517" y="-1633.66" font-family="Courier,monospace" font-size="11.00">ValidatableInterface</text>
</g>
<!-- \\Wellid\\CacheableValidatableInterface&#45;&gt;\\Wellid\\ValidatableInterface -->
<g id="edge27" class="edge"><title>\\Wellid\\CacheableValidatableInterface&#45;&gt;\\Wellid\\ValidatableInterface</title>
<path fill="none" stroke="black" d="M623.368,-1635.19C591.587,-1635.41 557.107,-1635.65 526.801,-1635.86"/>
<polygon fill="none" stroke="black" points="526.669,-1632.36 516.693,-1635.93 526.717,-1639.36 526.669,-1632.36"/>
</g>
<!-- \\Wellid\\SanitorBridgeInterface -->
<g id="node26" class="node"><title>\\Wellid\\SanitorBridgeInterface</title>
<polygon fill="none" stroke="black" points="812.157,-420.458 647.157,-420.458 647.157,-384.458 812.157,-384.458 812.157,-420.458"/>
<text text-anchor="middle" x="729.657" y="-399.658" font-family="Courier,monospace" font-size="11.00">SanitorBridgeInterface</text>
</g>
<!-- \\Sanitor\\SanitizableInterface -->
<g id="node38" class="node"><title>\\Sanitor\\SanitizableInterface</title>
<ellipse fill="none" stroke="black" cx="440.517" cy="-72.4579" rx="111.28" ry="18"/>
<text text-anchor="middle" x="440.517" y="-68.7579" font-family="Times,serif" font-size="14.00" fill="gray">\Sanitor\SanitizableInterface</text>
</g>
<!-- \\Wellid\\SanitorBridgeInterface&#45;&gt;\\Sanitor\\SanitizableInterface -->
<g id="edge28" class="edge"><title>\\Wellid\\SanitorBridgeInterface&#45;&gt;\\Sanitor\\SanitizableInterface</title>
<path fill="none" stroke="black" d="M647.059,-391.05C638.391,-387.179 630.324,-382.101 623.657,-375.458 533.86,-285.973 641.959,-188.434 551.657,-99.4579 547.3,-95.1646 542.378,-91.5157 537.093,-88.4181"/>
<polygon fill="none" stroke="black" points="538.387,-85.1486 527.89,-83.709 535.198,-91.3802 538.387,-85.1486"/>
</g>
<!-- \\Wellid\\Internal\\InternalInterface -->
<g id="node39" class="node"><title>\\Wellid\\Internal\\InternalInterface</title>
<ellipse fill="none" stroke="black" cx="128.689" cy="-713.458" rx="128.077" ry="18"/>
<text text-anchor="middle" x="128.689" y="-709.758" font-family="Times,serif" font-size="14.00" fill="gray">\Wellid\Internal\InternalInterface</text>
</g>
<!-- \\Wellid\\SanitorBridgeInterface&#45;&gt;\\Wellid\\Internal\\InternalInterface -->
<g id="edge29" class="edge"><title>\\Wellid\\SanitorBridgeInterface&#45;&gt;\\Wellid\\Internal\\InternalInterface</title>
<path fill="none" stroke="black" d="M647.055,-391.426C638.333,-387.496 630.254,-382.302 623.657,-375.458 519.484,-267.37 668.574,-139.616 551.657,-45.4579 474.715,16.5068 408.608,13.5523 329.377,-45.4579 221.707,-125.65 150.698,-568.422 133.658,-685.21"/>
<polygon fill="none" stroke="black" points="130.184,-684.776 132.221,-695.174 137.113,-685.776 130.184,-684.776"/>
</g>
<!-- \\Wellid\\ValidatableInterface&#45;&gt;\\Wellid\\ValidatorHolderInterface -->
<g id="edge31" class="edge"><title>\\Wellid\\ValidatableInterface&#45;&gt;\\Wellid\\ValidatorHolderInterface</title>
<path fill="none" stroke="black" d="M364.516,-1642.51C330.403,-1645.26 289.171,-1648.59 250.838,-1651.68"/>
<polygon fill="none" stroke="black" points="250.324,-1648.21 240.638,-1652.51 250.887,-1655.19 250.324,-1648.21"/>
</g>
<!-- \\Wellid\\ValidatableInterface&#45;&gt;\\Wellid\\Internal\\InternalInterface -->
<g id="edge30" class="edge"><title>\\Wellid\\ValidatableInterface&#45;&gt;\\Wellid\\Internal\\InternalInterface</title>
<path fill="none" stroke="black" d="M401.081,-1618.38C376.945,-1605.09 347.129,-1584.78 329.377,-1558.46 143.608,-1282.99 129.699,-855.482 129.423,-741.939"/>
<polygon fill="none" stroke="black" points="132.923,-741.662 129.434,-731.658 125.923,-741.654 132.923,-741.662"/>
</g>
<!-- \\Wellid\\ValidatableTrait -->
<g id="node28" class="node"><title>\\Wellid\\ValidatableTrait</title>
<polygon fill="none" stroke="black" points="792.157,-366.458 667.157,-366.458 667.157,-330.458 792.157,-330.458 792.157,-366.458"/>
<text text-anchor="middle" x="729.657" y="-345.658" font-family="Courier,monospace" font-size="11.00">ValidatableTrait</text>
</g>
<!-- \\Wellid\\CacheableValidatableTrait -->
<g id="node29" class="node"><title>\\Wellid\\CacheableValidatableTrait</title>
<polygon fill="none" stroke="black" points="822.157,-312.458 637.157,-312.458 637.157,-276.458 822.157,-276.458 822.157,-312.458"/>
<text text-anchor="middle" x="729.657" y="-291.658" font-family="Courier,monospace" font-size="11.00">CacheableValidatableTrait</text>
</g>
<!-- \\Wellid\\SanitorBridgeTrait -->
<g id="node30" class="node"><title>\\Wellid\\SanitorBridgeTrait</title>
<polygon fill="none" stroke="black" points="798.657,-258.458 660.657,-258.458 660.657,-222.458 798.657,-222.458 798.657,-258.458"/>
<text text-anchor="middle" x="729.657" y="-237.658" font-family="Courier,monospace" font-size="11.00">SanitorBridgeTrait</text>
</g>
<!-- \\WellidUsageExamples\\AccountBalance -->
<g id="node31" class="node"><title>\\WellidUsageExamples\\AccountBalance</title>
<polygon fill="none" stroke="black" points="1055.66,-1706.46 944.657,-1706.46 944.657,-1670.46 1055.66,-1670.46 1055.66,-1706.46"/>
<text text-anchor="middle" x="1000.16" y="-1685.66" font-family="Courier,monospace" font-size="11.00">AccountBalance</text>
</g>
<!-- \\WellidUsageExamples\\AccountBalance&#45;&gt;\\Wellid\\ValidatableInterface -->
<g id="edge3" class="edge"><title>\\WellidUsageExamples\\AccountBalance&#45;&gt;\\Wellid\\ValidatableInterface</title>
<path fill="none" stroke="black" stroke-dasharray="1,5" d="M944.421,-1701.55C890.362,-1713.16 805.199,-1727.93 730.657,-1725.46"/>
</g>
<!-- \\WellidUsageExamples\\AccountBalanceValidators -->
<g id="node32" class="node"><title>\\WellidUsageExamples\\AccountBalanceValidators</title>
<polygon fill="none" stroke="black" points="1089.66,-1598.46 910.657,-1598.46 910.657,-1562.46 1089.66,-1562.46 1089.66,-1598.46"/>
<text text-anchor="middle" x="1000.16" y="-1577.66" font-family="Courier,monospace" font-size="11.00">AccountBalanceValidators</text>
</g>
<!-- \\WellidUsageExamples\\AccountBalanceValidators&#45;&gt;\\Wellid\\ValidatorHolder -->
<g id="edge6" class="edge"><title>\\WellidUsageExamples\\AccountBalanceValidators&#45;&gt;\\Wellid\\ValidatorHolder</title>
<path fill="none" stroke="black" d="M918.453,-1598.55C911.925,-1601.15 905.573,-1604.1 899.657,-1607.46 869.585,-1624.52 873.986,-1644.85 843.657,-1661.46 829.942,-1668.97 814.172,-1674.4 798.848,-1678.33"/>
<polygon fill="none" stroke="black" points="797.789,-1674.99 788.869,-1680.71 799.408,-1681.8 797.789,-1674.99"/>
</g>
<!-- \\WellidUsageExamples\\SanitorWellidEmailExample -->
<g id="node33" class="node"><title>\\WellidUsageExamples\\SanitorWellidEmailExample</title>
<polygon fill="none" stroke="black" points="1092.66,-1652.46 907.657,-1652.46 907.657,-1616.46 1092.66,-1616.46 1092.66,-1652.46"/>
<text text-anchor="middle" x="1000.16" y="-1631.66" font-family="Courier,monospace" font-size="11.00">SanitorWellidEmailExample</text>
</g>
<!-- \\WellidUsageExamples\\SanitorWellidEmailExample&#45;&gt;\\Wellid\\SanitorBridgeInterface -->
<g id="edge23" class="edge"><title>\\WellidUsageExamples\\SanitorWellidEmailExample&#45;&gt;\\Wellid\\SanitorBridgeInterface</title>
<path fill="none" stroke="black" stroke-dasharray="1,5" d="M908.745,-1616.38C905.408,-1613.77 902.347,-1610.81 899.657,-1607.46 817.603,-1505.29 927.257,-530.363 843.657,-429.458 837.657,-422.215 830.092,-416.715 821.733,-412.563"/>
<polygon fill="none" stroke="black" points="822.959,-409.28 812.388,-408.568 820.207,-415.717 822.959,-409.28"/>
</g>
<!-- \\WellidUsageExamples\\SanitorWellidEmailExample&#45;&gt;\\Wellid\\ValidatableInterface -->
<g id="edge24" class="edge"><title>\\WellidUsageExamples\\SanitorWellidEmailExample&#45;&gt;\\Wellid\\ValidatableInterface</title>
<path fill="none" stroke="black" stroke-dasharray="1,5" d="M918.453,-1652.55C911.925,-1655.15 905.573,-1658.1 899.657,-1661.46 869.585,-1678.52 875.118,-1701.12 843.657,-1715.46 797.781,-1736.37 781.048,-1727.13 730.657,-1725.46"/>
<path fill="none" stroke="black" stroke-dasharray="1,5" d="M728.657,-1725.46C681.805,-1723.9 669.054,-1727.15 623.657,-1715.46 573.714,-1702.59 519.929,-1677.78 483.856,-1659.38"/>
<polygon fill="none" stroke="black" points="485.116,-1656.09 474.625,-1654.61 481.904,-1662.31 485.116,-1656.09"/>
</g>
</g>
</svg>
